<?xml version="1.0" encoding="UTF-8"?>
<svg width="7039px" height="2028px" viewBox="0 0 7039 2028" version="1.1" xmlns="http://www.w3.org/2000/svg" xmlns:xlink="http://www.w3.org/1999/xlink">
    <!-- Generator: Sketch 49.1 (51147) - http://www.bohemiancoding.com/sketch -->
    <title>test</title>
    <desc>Created with Sketch.</desc>
    <defs></defs>
    <g id="test" stroke="none" stroke-width="1" fill="none" fill-rule="evenodd">
        <g id="Auth0_Shield-Lockup_White_RGB" transform="translate(365.000000, 432.000000)" fill="#000000" fill-rule="nonzero">
            <g id="Group">
                <path d="M62.0586611,497.769859 C253.2443,466.344117 403.080557,316.718017 434.568881,125.819949 L449.886289,32.988459 C452.827841,15.0308921 438.059116,-0.811334384 419.876362,0.57352883 C274.307641,11.8198356 137.121581,59.9400277 61.3575658,90.9548764 C24.565304,106.036189 0.499445978,141.738267 0.499445978,181.473189 L0.499445978,474.912007 C0.499445978,492.169534 15.9540249,505.302907 33.0241712,502.502744 C33.0241712,502.502744 62.0586611,497.754641 62.0586611,497.754641 L62.0586611,497.769859 Z" id="Shape"></path>
                <path d="M526.778153,125.835168 C558.251235,316.733235 708.102734,466.344117 899.288373,497.785078 L928.322863,502.53318 C945.393009,505.333343 960.847588,492.19997 960.847588,474.942444 L960.847588,181.503625 C960.847588,141.753485 936.78173,106.066626 899.989468,90.985313 C824.225453,59.9095912 686.978428,11.8502722 541.470672,0.603965385 C523.287918,-0.796116107 508.458228,15.0004555 511.460745,33.0188956 L526.778153,125.850386 L526.778153,125.835168 Z" id="Shape"></path>
                <path d="M899.273132,589.764344 C708.087493,621.190087 558.251235,770.816187 526.762912,961.714255 L507.665686,1142.90306 C505.912948,1159.24749 524.110943,1170.76773 537.812784,1161.62154 C537.949954,1161.54545 538.02616,1161.48458 538.163331,1161.40849 C658.065868,1080.66031 931.58448,869.293658 958.652855,605.271769 C959.978839,592.27536 948.441249,581.668221 935.562434,583.753125 L899.318855,589.688253 L899.242649,589.764344 L899.273132,589.764344 Z" id="Shape"></path>
                <path d="M434.568881,961.714255 C403.095798,770.816187 253.2443,621.205305 62.0586611,589.764344 L23.0869074,583.342232 C11.6102823,581.455165 1.33771209,590.95137 2.45031984,602.547697 C28.1165041,868.045759 305.414934,1080.7364 426.369114,1161.62154 C438.897382,1169.93072 455.464569,1159.94753 453.864243,1145.00318 L434.55364,961.714255 L434.568881,961.714255 Z" id="Shape"></path>
            </g>
        </g>
        <g id="Group" transform="translate(1536.000000, 700.000000)" fill="#000000" fill-rule="nonzero">
            <path d="M0.520375771,487.839516 C0.520375771,383.713065 87.1185193,344.374435 196.130897,344.374435 L302.059097,344.374435 C309.788581,344.374435 313.659669,340.512742 313.659669,332.802016 L313.659669,316.608226 C313.659669,260.303468 271.141161,233.309597 208.505687,233.309597 C159.793438,233.309597 126.552849,249.516048 108.758536,284.220645 C102.577487,296.565403 97.1579641,301.186774 84.0216489,301.186774 L38.4062703,301.186774 C23.7215199,301.186774 16.7535614,293.476048 16.7535614,281.903629 C16.7535614,276.497258 18.3019966,268.786532 24.4830454,255.682097 C53.8652384,194.755968 111.081189,155.417339 217.783606,155.417339 C336.848121,155.417339 407.213079,207.873065 407.213079,322.786935 L407.213079,513.301371 C407.213079,532.584516 414.168345,537.218548 430.401531,537.218548 L431.175749,537.218548 C446.634717,537.218548 454.364201,544.929274 454.364201,560.350726 L454.364201,598.917016 C454.364201,614.338468 446.634717,622.049194 431.175749,622.049194 L404.116209,622.049194 C360.036573,622.049194 337.622339,610.476774 323.699114,580.393548 C321.376461,574.987177 319.828026,573.455161 316.743847,573.455161 C313.659669,573.455161 311.324324,574.999839 305.143275,580.393548 C270.354251,611.249113 227.048833,627.442903 169.058665,627.442903 C80.9120864,627.442903 0.507683679,586.559597 0.507683679,487.839516 L0.520375771,487.839516 Z M313.659669,435.38379 L313.659669,427.673065 C313.659669,419.962339 309.788581,416.100645 302.059097,416.100645 L186.078761,416.100645 C131.95968,416.100645 94.0737858,436.156129 94.0737858,483.977823 C94.0737858,531.799516 132.733898,551.855 179.123494,551.855 C251.036887,551.855 313.659669,507.11 313.659669,435.38379 Z" id="Shape"></path>
            <path d="M493.037005,420.734677 L493.037005,183.943226 C493.037005,168.521774 500.766489,160.811048 516.225457,160.811048 L563.389271,160.811048 C578.848239,160.811048 586.577723,168.521774 586.577723,183.943226 L586.577723,412.251613 C586.577723,486.294839 613.637263,541.054919 690.957487,541.054919 C772.923017,541.054919 811.570437,476.267097 811.570437,401.451532 L811.570437,183.930565 C811.570437,168.509113 819.299921,160.798387 834.75889,160.798387 L881.922703,160.798387 C897.381671,160.798387 905.111155,168.509113 905.111155,183.930565 L905.111155,598.904355 C905.111155,614.325806 897.381671,622.036532 881.922703,622.036532 L839.404195,622.036532 C825.48097,622.036532 817.751486,615.098145 815.428833,601.20871 L811.557745,580.380887 C810.783528,575.746855 808.460875,573.4425 804.602479,573.4425 C801.518301,573.4425 799.195648,574.987177 795.337252,578.848871 C763.632406,607.387419 724.972294,627.442903 667.756343,627.442903 C546.369176,627.442903 493.011621,540.282581 493.011621,420.734677 L493.037005,420.734677 Z" id="Shape"></path>
            <path d="M991.747375,496.322581 L991.747375,28.9057258 C991.747375,13.4842742 999.476859,5.77354839 1014.93583,5.77354839 L1062.09964,5.77354839 C1077.55861,5.77354839 1085.28809,13.4842742 1085.28809,28.9057258 L1085.28809,149.225968 C1085.28809,156.936694 1089.15918,160.798387 1096.88867,160.798387 L1233.74749,160.798387 C1249.20646,160.798387 1256.93595,168.509113 1256.93595,183.930565 L1256.93595,222.496855 C1256.93595,237.918306 1249.20646,245.641694 1233.74749,245.641694 L1096.88867,245.641694 C1089.15918,245.641694 1085.28809,249.503387 1085.28809,257.214113 L1085.28809,487.839516 C1085.28809,521.771774 1100.74706,537.205887 1135.53609,537.205887 L1243.01272,537.205887 C1258.47169,537.205887 1266.20117,544.916613 1266.20117,560.338065 L1266.20117,598.904355 C1266.20117,614.325806 1258.47169,622.036532 1243.01272,622.036532 L1130.90347,622.036532 C1034.25319,622.036532 991.734683,583.470242 991.734683,496.309919 L991.747375,496.322581 Z" id="Shape"></path>
            <path d="M1330.39777,598.904355 L1330.39777,28.9057258 C1330.39777,13.4842742 1338.12726,5.77354839 1353.58623,5.77354839 L1400.75004,5.77354839 C1416.20901,5.77354839 1423.93849,13.4842742 1423.93849,28.9057258 L1423.93849,208.620081 C1423.93849,213.254113 1427.02267,216.330806 1430.89376,216.330806 C1433.21641,216.330806 1435.52637,215.558468 1442.49433,209.392419 C1476.50914,178.536855 1513.62081,155.404677 1576.25629,155.404677 C1696.86924,155.404677 1751.00101,240.247984 1751.00101,365.202258 L1751.00101,598.917016 C1751.00101,614.338468 1743.27153,622.049194 1727.81256,622.049194 L1680.64874,622.049194 C1665.18978,622.049194 1657.46029,614.338468 1657.46029,598.917016 L1657.46029,369.83629 C1657.46029,298.097419 1629.62653,241.792661 1553.85474,241.792661 C1472.66343,241.792661 1423.96388,307.352823 1423.96388,399.919516 L1423.96388,598.917016 C1423.96388,614.338468 1416.23439,622.049194 1400.77542,622.049194 L1353.61161,622.049194 C1338.15264,622.049194 1330.42316,614.338468 1330.42316,598.917016 L1330.39777,598.904355 Z" id="Shape"></path>
            <path d="M1809.7654,314.29121 C1809.7654,105.265968 1890.94402,0.367177419 2036.30655,0.367177419 C2181.66907,0.367177419 2262.835,105.265968 2262.835,314.29121 C2262.835,523.316452 2181.65638,627.442903 2036.30655,627.442903 C1890.95671,627.442903 1809.7654,522.544113 1809.7654,314.29121 Z M1923.42308,384.485403 L2128.32421,157.721694 C2131.42108,153.86 2132.95683,151.555645 2132.95683,146.149274 C2132.95683,142.287581 2132.18261,137.66621 2126.77578,130.715161 C2105.89729,105.265968 2076.52778,86.7551613 2036.31924,86.7551613 C1951.26953,86.7551613 1903.3315,163.887742 1903.3315,315.063548 C1903.3315,336.651048 1904.10572,355.946855 1907.20259,382.168387 C1907.9768,386.802419 1910.28676,389.879113 1914.15785,389.879113 C1916.4805,389.879113 1919.57738,389.106774 1923.43577,384.485403 L1923.42308,384.485403 Z M2169.29428,312.746532 C2169.29428,291.146371 2168.52007,271.863226 2165.4232,245.641694 C2164.64898,241.007661 2162.33902,237.930968 2158.46793,237.930968 C2156.14528,237.930968 2153.04841,238.703306 2149.19001,243.337339 L1944.28888,470.101048 C1941.2047,473.962742 1939.65626,476.267097 1939.65626,481.673468 C1939.65626,485.535161 1940.43048,490.156532 1945.83731,497.094919 C1966.7158,522.544113 1996.08531,541.054919 2036.30655,541.054919 C2121.35625,541.054919 2169.28159,463.922339 2169.28159,312.746532 L2169.29428,312.746532 Z" id="Shape"></path>
        </g>
        <g id="Group-2" transform="translate(4143.000000, 693.000000)" fill="#000000">
            <path d="M0,630 L0,0 L204.3,0 C278.100369,0 338.849761,12.899871 386.55,38.7 C434.250238,64.500129 469.649884,100.949764 492.75,148.05 C515.850115,195.150236 527.4,251.099676 527.4,315.9 C527.4,380.100321 515.850115,435.749764 492.75,482.85 C469.649884,529.950235 434.250238,566.249873 386.55,591.75 C338.849761,617.250127 278.100369,630 204.3,630 L0,630 Z M95.4,549 L200.7,549 C257.700285,549 302.849834,539.700093 336.15,521.1 C369.450167,502.499907 393.449927,475.800174 408.15,441 C422.850074,406.199826 430.2,364.500243 430.2,315.9 C430.2,267.299757 422.850074,225.300177 408.15,189.9 C393.449927,154.499823 369.450167,127.350094 336.15,108.45 C302.849834,89.5499055 257.700285,80.1 200.7,80.1 L95.4,80.1 L95.4,549 Z M787.9,640.8 C744.099781,640.8 705.25017,631.050097 671.35,611.55 C637.449831,592.049902 610.900096,564.900174 591.7,530.1 C572.499904,495.299826 562.9,454.800231 562.9,408.6 C562.9,361.799766 572.349906,320.700177 591.25,285.3 C610.150095,249.899823 636.549831,222.300099 670.45,202.5 C704.35017,182.699901 743.799775,172.8 788.8,172.8 C832.600219,172.8 870.699838,182.549902 903.1,202.05 C935.500162,221.550097 960.69991,247.499838 978.7,279.9 C996.70009,312.300162 1005.7,347.999805 1005.7,387 C1005.7,393.00003 1005.55,399.449965 1005.25,406.35 C1004.95,413.250034 1004.5,420.899958 1003.9,429.3 L656.5,429.3 C659.500015,472.500216 673.749873,505.349888 699.25,527.85 C724.750128,550.350113 754.299832,561.6 787.9,561.6 C814.900135,561.6 837.549909,555.450061 855.85,543.15 C874.150092,530.849939 887.799955,514.200105 896.8,493.2 L992.2,493.2 C980.19994,535.20021 956.350179,570.299859 920.65,598.5 C884.949822,626.700141 840.700264,640.8 787.9,640.8 Z M787.9,251.1 C756.099841,251.1 727.900123,260.549905 703.3,279.45 C678.699877,298.350094 663.700027,326.699811 658.3,364.5 L910.3,364.5 C908.499991,329.699826 896.200114,302.100102 873.4,281.7 C850.599886,261.299898 822.100171,251.1 787.9,251.1 Z M1064.7,630 L1064.7,183.6 L1149.3,183.6 L1157.4,246.6 C1171.80007,223.799886 1190.84988,205.800066 1214.55,192.6 C1238.25012,179.399934 1265.69984,172.8 1296.9,172.8 C1367.70035,172.8 1416.89986,200.699721 1444.5,256.5 C1460.70008,230.699871 1482.44986,210.300075 1509.75,195.3 C1537.05014,180.299925 1566.59984,172.8 1598.4,172.8 C1654.20028,172.8 1697.99984,189.599832 1729.8,223.2 C1761.60016,256.800168 1777.5,306.899667 1777.5,373.5 L1777.5,630 L1682.1,630 L1682.1,383.4 C1682.1,296.999568 1649.10033,253.8 1583.1,253.8 C1549.49983,253.8 1522.05011,266.399874 1500.75,291.6 C1479.44989,316.800126 1468.8,352.799766 1468.8,399.6 L1468.8,630 L1373.4,630 L1373.4,383.4 C1373.4,296.999568 1340.10033,253.8 1273.5,253.8 C1240.49984,253.8 1213.35011,266.399874 1192.05,291.6 C1170.74989,316.800126 1160.1,352.799766 1160.1,399.6 L1160.1,630 L1064.7,630 Z" id="Dem"></path>
            <path d="M1849,327.924032 C1849,118.89879 1930.17862,14 2075.54115,14 C2220.90368,14 2302.06961,118.89879 2302.06961,327.924032 C2302.06961,536.949274 2220.89099,641.075726 2075.54115,641.075726 C1930.19131,641.075726 1849,536.176935 1849,327.924032 Z M1962.65768,398.118226 L2167.55882,171.354516 C2170.65569,167.492823 2172.19143,165.188468 2172.19143,159.782097 C2172.19143,155.920403 2171.41721,151.299032 2166.01038,144.347984 C2145.13189,118.89879 2115.76239,100.387984 2075.55384,100.387984 C1990.50413,100.387984 1942.5661,177.520565 1942.5661,328.696371 C1942.5661,350.283871 1943.34032,369.579677 1946.43719,395.80121 C1947.21141,400.435242 1949.52137,403.511935 1953.39246,403.511935 C1955.71511,403.511935 1958.81198,402.739597 1962.67038,398.118226 L1962.65768,398.118226 Z M2208.52889,326.379355 C2208.52889,304.779194 2207.75467,285.496048 2204.6578,259.274516 C2203.88358,254.640484 2201.57362,251.56379 2197.70254,251.56379 C2195.37988,251.56379 2192.28301,252.336129 2188.42462,256.970161 L1983.52348,483.733871 C1980.4393,487.595565 1978.89087,489.899919 1978.89087,495.30629 C1978.89087,499.167984 1979.66509,503.789355 1985.07192,510.727742 C2005.95041,536.176935 2035.31991,554.687742 2075.54115,554.687742 C2160.59086,554.687742 2208.5162,477.555161 2208.5162,326.379355 L2208.52889,326.379355 Z" id="Shape" fill-rule="nonzero"></path>
        </g>
    </g>
</svg>