<?xml version="1.0" encoding="UTF-8"?>
<svg width="1237px" height="299px" viewBox="0 0 1237 299" version="1.1" xmlns="http://www.w3.org/2000/svg" xmlns:xlink="http://www.w3.org/1999/xlink">
    <!-- Generator: Sketch 49.1 (51147) - http://www.bohemiancoding.com/sketch -->
    <title>travel0-fulllogo-white</title>
    <desc>Created with Sketch.</desc>
    <defs></defs>
    <g id="travel0-fulllogo-white" stroke="none" stroke-width="1" fill="none" fill-rule="evenodd">
        <g id="TravelZero-Logo" transform="translate(50.000000, 13.000000)" fill="#FFFFFF" fill-rule="nonzero">
            <path d="M349.975,206.136 L349.975,110.644 L316.388,110.644 L316.388,90.8869 L405.295,90.8869 L405.295,110.644 L371.708,110.644 L371.708,206.136 L349.975,206.136 Z M409.498,206.136 L409.498,124.474 L429.914,124.474 L429.914,133.694 L432.877,133.694 C434.084,130.401 436.06,127.986 438.804,126.449 C441.658,124.913 444.951,124.144 448.683,124.144 L458.561,124.144 L458.561,142.584 L448.353,142.584 C443.085,142.584 438.749,144.011 435.347,146.865 C431.944,149.609 430.243,153.89 430.243,159.707 L430.243,206.136 L409.498,206.136 Z M504.81,208.441 C498.224,208.441 492.132,206.849 486.535,203.666 C480.937,200.373 476.437,195.599 473.034,189.342 C469.632,183.086 467.93,175.512 467.93,166.622 L467.93,163.988 C467.93,155.097 469.632,147.523 473.034,141.267 C476.437,135.011 480.937,130.291 486.535,127.108 C492.242,123.815 498.334,122.169 504.81,122.169 C512.274,122.169 517.926,123.431 521.768,125.955 C525.719,128.37 528.628,131.169 530.494,134.352 L533.457,134.352 L533.457,124.474 L553.873,124.474 L553.873,184.074 C553.873,187.367 555.41,189.013 558.483,189.013 L565.069,189.013 L565.069,206.136 L548.604,206.136 C544.653,206.136 541.36,205.038 538.726,202.843 C536.201,200.648 534.939,197.629 534.939,193.788 L534.939,193.623 L531.976,193.623 C530.11,197.684 527.091,201.197 522.92,204.16 C518.859,207.014 512.822,208.441 504.81,208.441 Z M511.066,190.33 C517.542,190.33 522.866,188.3 527.036,184.238 C531.317,180.068 533.457,174.031 533.457,166.128 L533.457,164.482 C533.457,156.579 531.317,150.597 527.036,146.536 C522.756,142.365 517.432,140.279 511.066,140.279 C504.7,140.279 499.377,142.365 495.096,146.536 C490.815,150.597 488.675,156.579 488.675,164.482 L488.675,166.128 C488.675,174.031 490.815,180.068 495.096,184.238 C499.377,188.3 504.7,190.33 511.066,190.33 Z M596.407,206.136 L570.394,124.474 L592.456,124.474 L611.389,190.989 L614.353,190.989 L633.287,124.474 L655.349,124.474 L629.335,206.136 L596.407,206.136 Z M704.441,208.441 C696.319,208.441 689.13,206.739 682.873,203.337 C676.727,199.824 671.897,194.94 668.385,188.684 C664.982,182.318 663.281,174.854 663.281,166.293 L663.281,164.317 C663.281,155.756 664.982,148.347 668.385,142.09 C671.787,135.724 676.562,130.84 682.709,127.437 C688.855,123.925 695.99,122.169 704.112,122.169 C712.124,122.169 719.094,123.98 725.021,127.602 C730.948,131.114 735.558,136.053 738.851,142.42 C742.144,148.676 743.79,155.975 743.79,164.317 L743.79,171.396 L684.355,171.396 C684.574,176.994 686.66,181.549 690.611,185.062 C694.563,188.574 699.392,190.33 705.1,190.33 C710.917,190.33 715.198,189.068 717.942,186.543 C720.686,184.019 722.771,181.22 724.198,178.147 L741.156,187.037 C739.62,189.891 737.369,193.019 734.406,196.422 C731.552,199.715 727.71,202.569 722.881,204.983 C718.052,207.288 711.905,208.441 704.441,208.441 Z M684.52,155.92 L722.716,155.92 C722.277,151.2 720.357,147.414 716.954,144.56 C713.661,141.706 709.326,140.279 703.947,140.279 C698.349,140.279 693.904,141.706 690.611,144.56 C687.318,147.414 685.288,151.2 684.52,155.92 Z M762.255,206.136 L762.255,90.8869 L782.999,90.8869 L782.999,206.136 L762.255,206.136 Z M802.036,206.136 L802.036,178.476 L859.002,112.949 L859.002,110.315 L803.683,110.315 L803.683,90.8869 L881.722,90.8869 L881.722,118.547 L824.757,184.074 L824.757,186.708 L882.052,186.708 L882.052,206.136 L802.036,206.136 Z M936.772,208.441 C928.65,208.441 921.46,206.739 915.204,203.337 C909.057,199.824 904.228,194.94 900.715,188.684 C897.313,182.318 895.612,174.854 895.612,166.293 L895.612,164.317 C895.612,155.756 897.313,148.347 900.715,142.09 C904.118,135.724 908.893,130.84 915.039,127.437 C921.186,123.925 928.32,122.169 936.443,122.169 C944.455,122.169 951.425,123.98 957.352,127.602 C963.279,131.114 967.889,136.053 971.182,142.42 C974.475,148.676 976.121,155.975 976.121,164.317 L976.121,171.396 L916.686,171.396 C916.905,176.994 918.991,181.549 922.942,185.062 C926.893,188.574 931.723,190.33 937.43,190.33 C943.248,190.33 947.528,189.068 950.272,186.543 C953.016,184.019 955.102,181.22 956.529,178.147 L973.487,187.037 C971.95,189.891 969.7,193.019 966.737,196.422 C963.883,199.715 960.041,202.569 955.212,204.983 C950.382,207.288 944.236,208.441 936.772,208.441 Z M916.85,155.92 L955.047,155.92 C954.608,151.2 952.687,147.414 949.285,144.56 C945.992,141.706 941.656,140.279 936.278,140.279 C930.68,140.279 926.235,141.706 922.942,144.56 C919.649,147.414 917.619,151.2 916.85,155.92 Z M994.585,206.136 L994.585,124.474 L1015,124.474 L1015,133.694 L1017.96,133.694 C1019.17,130.401 1021.15,127.986 1023.89,126.449 C1026.75,124.913 1030.04,124.144 1033.77,124.144 L1043.65,124.144 L1043.65,142.584 L1033.44,142.584 C1028.17,142.584 1023.84,144.011 1020.43,146.865 C1017.03,149.609 1015.33,153.89 1015.33,159.707 L1015.33,206.136 L994.585,206.136 Z M1095.82,208.441 C1087.7,208.441 1080.4,206.794 1073.93,203.501 C1067.45,200.209 1062.35,195.434 1058.62,189.178 C1054.88,182.921 1053.02,175.403 1053.02,166.622 L1053.02,163.988 C1053.02,155.207 1054.88,147.688 1058.62,141.432 C1062.35,135.175 1067.45,130.401 1073.93,127.108 C1080.4,123.815 1087.7,122.169 1095.82,122.169 C1103.95,122.169 1111.25,123.815 1117.72,127.108 C1124.2,130.401 1129.3,135.175 1133.03,141.432 C1136.77,147.688 1138.63,155.207 1138.63,163.988 L1138.63,166.622 C1138.63,175.403 1136.77,182.921 1133.03,189.178 C1129.3,195.434 1124.2,200.209 1117.72,203.501 C1111.25,206.794 1103.95,208.441 1095.82,208.441 Z M1095.82,190.001 C1102.19,190.001 1107.46,187.97 1111.63,183.909 C1115.8,179.738 1117.89,173.811 1117.89,166.128 L1117.89,164.482 C1117.89,156.798 1115.8,150.926 1111.63,146.865 C1107.57,142.694 1102.3,140.609 1095.82,140.609 C1089.46,140.609 1084.19,142.694 1080.02,146.865 C1075.85,150.926 1073.76,156.798 1073.76,164.482 L1073.76,166.128 C1073.76,173.811 1075.85,179.738 1080.02,183.909 C1084.19,187.97 1089.46,190.001 1095.82,190.001 Z" id="Shape"></path>
            <path d="M206.341,254.223 C214.983,254.223 221.983,247.223 221.983,238.581 C221.983,229.94 214.983,222.94 206.341,222.94 C197.699,222.94 190.7,229.94 190.7,238.581 C190.7,247.223 197.699,254.223 206.341,254.223 Z M206.341,250.352 C199.831,250.352 194.571,245.073 194.571,238.581 C194.571,232.09 199.831,226.811 206.341,226.811 C212.833,226.811 218.092,232.09 218.092,238.581 C218.092,245.092 212.833,250.352 206.341,250.352 Z M200.808,245.62 L204.171,245.62 L204.171,240.752 L207.065,240.752 L209.489,245.62 L213.185,245.62 L210.291,240.048 C211.62,239.246 212.637,237.819 212.637,235.864 C212.637,232.755 210.115,231.191 208.023,231.191 L200.808,231.191 L200.808,245.62 Z M204.171,238.269 L204.171,233.674 L206.967,233.674 C207.808,233.674 209,234.202 209,235.864 C209,237.467 207.847,238.269 206.908,238.269 L204.171,238.269 Z" id="Shape"></path>
            <path d="M112.899,275.569 C120.164,267.435 225.506,171.953 225.506,109.36 C225.458,80.3621 213.592,52.5684 192.513,32.0807 C171.435,11.593 142.866,0.0859 113.081,0.08594 L112.354,0.08594 C82.5855,0.08594 54.0359,11.5986 32.9862,32.0914 C11.9364,52.5842 0.11084,80.3784 0.11084,109.36 C0.15655,116.374 1.25803,123.344 3.3801,130.047 C18.0916,159.753 49.1493,159.399 69.8543,141.187 L90.3778,123.151 L35.7091,91.3241 C35.4979,91.224 35.3149,91.0756 35.1755,90.8915 C35.0362,90.7075 34.9448,90.4934 34.9091,90.2674 C34.8734,90.0415 34.8944,89.8104 34.9705,89.5941 C35.0466,89.3778 35.1754,89.1827 35.3459,89.0255 L43.1557,82.1295 C43.9618,81.5027 44.9054,81.0651 45.9133,80.8504 C46.9211,80.6358 47.9663,80.6499 48.9676,80.8918 L118.166,99.811 L135.602,84.4281 C138.271,82.1655 141.059,80.0408 143.957,78.0627 C151.767,72.4045 163.209,65.8623 167.931,70.99 C172.653,76.1177 164.662,86.1963 158.123,93.269 C154.128,97.513 150.495,100.695 150.495,100.695 L133.059,115.902 L144.865,185.038 C145.026,186.026 144.946,187.037 144.63,187.99 C144.314,188.942 143.773,189.809 143.049,190.519 L135.239,197.238 C135.077,197.404 134.877,197.529 134.655,197.604 C134.433,197.678 134.195,197.698 133.963,197.663 C133.731,197.629 133.511,197.54 133.322,197.404 C133.133,197.268 132.981,197.09 132.878,196.885 L106.179,140.303 L85.6556,158.338 C62.5894,178.495 48.2411,206.963 90.9226,250.814 L112.899,275.569 Z" id="Shape"></path>
        </g>
    </g>
</svg>