<?xml version="1.0" encoding="UTF-8"?>
<svg width="1237px" height="299px" viewBox="0 0 1237 299" version="1.1" xmlns="http://www.w3.org/2000/svg" xmlns:xlink="http://www.w3.org/1999/xlink">
    <!-- Generator: Sketch 49.1 (51147) - http://www.bohemiancoding.com/sketch -->
    <title>travel0-fulllogo</title>
    <desc>Created with Sketch.</desc>
    <defs>
        <linearGradient x1="50%" y1="0%" x2="50%" y2="98.0762283%" id="linearGradient-1">
            <stop stop-color="#FF7E38" offset="0%"></stop>
            <stop stop-color="#FF561A" offset="100%"></stop>
        </linearGradient>
    </defs>
    <g id="travel0-fulllogo" stroke="none" stroke-width="1" fill="none" fill-rule="evenodd">
        <g id="TravelZero-Logo" transform="translate(49.000000, 10.000000)" fill="url(#linearGradient-1)" fill-rule="nonzero">
            <path d="M350.975,209.136 L350.975,113.644 L317.388,113.644 L317.388,93.8869 L406.295,93.8869 L406.295,113.644 L372.708,113.644 L372.708,209.136 L350.975,209.136 Z M410.498,209.136 L410.498,127.474 L430.914,127.474 L430.914,136.694 L433.877,136.694 C435.084,133.401 437.06,130.986 439.804,129.449 C442.658,127.913 445.951,127.144 449.683,127.144 L459.561,127.144 L459.561,145.584 L449.353,145.584 C444.085,145.584 439.749,147.011 436.347,149.865 C432.944,152.609 431.243,156.89 431.243,162.707 L431.243,209.136 L410.498,209.136 Z M505.81,211.441 C499.224,211.441 493.132,209.849 487.535,206.666 C481.937,203.373 477.437,198.599 474.034,192.342 C470.632,186.086 468.93,178.512 468.93,169.622 L468.93,166.988 C468.93,158.097 470.632,150.523 474.034,144.267 C477.437,138.011 481.937,133.291 487.535,130.108 C493.242,126.815 499.334,125.169 505.81,125.169 C513.274,125.169 518.926,126.431 522.768,128.955 C526.719,131.37 529.628,134.169 531.494,137.352 L534.457,137.352 L534.457,127.474 L554.873,127.474 L554.873,187.074 C554.873,190.367 556.41,192.013 559.483,192.013 L566.069,192.013 L566.069,209.136 L549.604,209.136 C545.653,209.136 542.36,208.038 539.726,205.843 C537.201,203.648 535.939,200.629 535.939,196.788 L535.939,196.623 L532.976,196.623 C531.11,200.684 528.091,204.197 523.92,207.16 C519.859,210.014 513.822,211.441 505.81,211.441 Z M512.066,193.33 C518.542,193.33 523.866,191.3 528.036,187.238 C532.317,183.068 534.457,177.031 534.457,169.128 L534.457,167.482 C534.457,159.579 532.317,153.597 528.036,149.536 C523.756,145.365 518.432,143.279 512.066,143.279 C505.7,143.279 500.377,145.365 496.096,149.536 C491.815,153.597 489.675,159.579 489.675,167.482 L489.675,169.128 C489.675,177.031 491.815,183.068 496.096,187.238 C500.377,191.3 505.7,193.33 512.066,193.33 Z M597.407,209.136 L571.394,127.474 L593.456,127.474 L612.389,193.989 L615.353,193.989 L634.287,127.474 L656.349,127.474 L630.335,209.136 L597.407,209.136 Z M705.441,211.441 C697.319,211.441 690.13,209.739 683.873,206.337 C677.727,202.824 672.897,197.94 669.385,191.684 C665.982,185.318 664.281,177.854 664.281,169.293 L664.281,167.317 C664.281,158.756 665.982,151.347 669.385,145.09 C672.787,138.724 677.562,133.84 683.709,130.437 C689.855,126.925 696.99,125.169 705.112,125.169 C713.124,125.169 720.094,126.98 726.021,130.602 C731.948,134.114 736.558,139.053 739.851,145.42 C743.144,151.676 744.79,158.975 744.79,167.317 L744.79,174.396 L685.355,174.396 C685.574,179.994 687.66,184.549 691.611,188.062 C695.563,191.574 700.392,193.33 706.1,193.33 C711.917,193.33 716.198,192.068 718.942,189.543 C721.686,187.019 723.771,184.22 725.198,181.147 L742.156,190.037 C740.62,192.891 738.369,196.019 735.406,199.422 C732.552,202.715 728.71,205.569 723.881,207.983 C719.052,210.288 712.905,211.441 705.441,211.441 Z M685.52,158.92 L723.716,158.92 C723.277,154.2 721.357,150.414 717.954,147.56 C714.661,144.706 710.326,143.279 704.947,143.279 C699.349,143.279 694.904,144.706 691.611,147.56 C688.318,150.414 686.288,154.2 685.52,158.92 Z M763.255,209.136 L763.255,93.8869 L783.999,93.8869 L783.999,209.136 L763.255,209.136 Z M803.036,209.136 L803.036,181.476 L860.002,115.949 L860.002,113.315 L804.683,113.315 L804.683,93.8869 L882.722,93.8869 L882.722,121.547 L825.757,187.074 L825.757,189.708 L883.052,189.708 L883.052,209.136 L803.036,209.136 Z M937.772,211.441 C929.65,211.441 922.46,209.739 916.204,206.337 C910.057,202.824 905.228,197.94 901.715,191.684 C898.313,185.318 896.612,177.854 896.612,169.293 L896.612,167.317 C896.612,158.756 898.313,151.347 901.715,145.09 C905.118,138.724 909.893,133.84 916.039,130.437 C922.186,126.925 929.32,125.169 937.443,125.169 C945.455,125.169 952.425,126.98 958.352,130.602 C964.279,134.114 968.889,139.053 972.182,145.42 C975.475,151.676 977.121,158.975 977.121,167.317 L977.121,174.396 L917.686,174.396 C917.905,179.994 919.991,184.549 923.942,188.062 C927.893,191.574 932.723,193.33 938.43,193.33 C944.248,193.33 948.528,192.068 951.272,189.543 C954.016,187.019 956.102,184.22 957.529,181.147 L974.487,190.037 C972.95,192.891 970.7,196.019 967.737,199.422 C964.883,202.715 961.041,205.569 956.212,207.983 C951.382,210.288 945.236,211.441 937.772,211.441 Z M917.85,158.92 L956.047,158.92 C955.608,154.2 953.687,150.414 950.285,147.56 C946.992,144.706 942.656,143.279 937.278,143.279 C931.68,143.279 927.235,144.706 923.942,147.56 C920.649,150.414 918.619,154.2 917.85,158.92 Z M995.585,209.136 L995.585,127.474 L1016,127.474 L1016,136.694 L1018.96,136.694 C1020.17,133.401 1022.15,130.986 1024.89,129.449 C1027.75,127.913 1031.04,127.144 1034.77,127.144 L1044.65,127.144 L1044.65,145.584 L1034.44,145.584 C1029.17,145.584 1024.84,147.011 1021.43,149.865 C1018.03,152.609 1016.33,156.89 1016.33,162.707 L1016.33,209.136 L995.585,209.136 Z M1096.82,211.441 C1088.7,211.441 1081.4,209.794 1074.93,206.501 C1068.45,203.209 1063.35,198.434 1059.62,192.178 C1055.88,185.921 1054.02,178.403 1054.02,169.622 L1054.02,166.988 C1054.02,158.207 1055.88,150.688 1059.62,144.432 C1063.35,138.175 1068.45,133.401 1074.93,130.108 C1081.4,126.815 1088.7,125.169 1096.82,125.169 C1104.95,125.169 1112.25,126.815 1118.72,130.108 C1125.2,133.401 1130.3,138.175 1134.03,144.432 C1137.77,150.688 1139.63,158.207 1139.63,166.988 L1139.63,169.622 C1139.63,178.403 1137.77,185.921 1134.03,192.178 C1130.3,198.434 1125.2,203.209 1118.72,206.501 C1112.25,209.794 1104.95,211.441 1096.82,211.441 Z M1096.82,193.001 C1103.19,193.001 1108.46,190.97 1112.63,186.909 C1116.8,182.738 1118.89,176.811 1118.89,169.128 L1118.89,167.482 C1118.89,159.798 1116.8,153.926 1112.63,149.865 C1108.57,145.694 1103.3,143.609 1096.82,143.609 C1090.46,143.609 1085.19,145.694 1081.02,149.865 C1076.85,153.926 1074.76,159.798 1074.76,167.482 L1074.76,169.128 C1074.76,176.811 1076.85,182.738 1081.02,186.909 C1085.19,190.97 1090.46,193.001 1096.82,193.001 Z" id="Shape"></path>
            <path d="M207.341,257.223 C215.983,257.223 222.983,250.223 222.983,241.581 C222.983,232.94 215.983,225.94 207.341,225.94 C198.699,225.94 191.7,232.94 191.7,241.581 C191.7,250.223 198.699,257.223 207.341,257.223 Z M207.341,253.352 C200.831,253.352 195.571,248.073 195.571,241.581 C195.571,235.09 200.831,229.811 207.341,229.811 C213.833,229.811 219.092,235.09 219.092,241.581 C219.092,248.092 213.833,253.352 207.341,253.352 Z M201.808,248.62 L205.171,248.62 L205.171,243.752 L208.065,243.752 L210.489,248.62 L214.185,248.62 L211.291,243.048 C212.62,242.246 213.637,240.819 213.637,238.864 C213.637,235.755 211.115,234.191 209.023,234.191 L201.808,234.191 L201.808,248.62 Z M205.171,241.269 L205.171,236.674 L207.967,236.674 C208.808,236.674 210,237.202 210,238.864 C210,240.467 208.847,241.269 207.908,241.269 L205.171,241.269 Z" id="Shape"></path>
            <path d="M113.899,278.569 C121.164,270.435 226.506,174.953 226.506,112.36 C226.458,83.3621 214.592,55.5684 193.513,35.0807 C172.435,14.593 143.866,3.0859 114.081,3.08594 L113.354,3.08594 C83.5855,3.08594 55.0359,14.5986 33.9862,35.0914 C12.9364,55.5842 1.11084,83.3784 1.11084,112.36 C1.15655,119.374 2.25803,126.344 4.3801,133.047 C19.0916,162.753 50.1493,162.399 70.8543,144.187 L91.3778,126.151 L36.7091,94.3241 C36.4979,94.224 36.3149,94.0756 36.1755,93.8915 C36.0362,93.7075 35.9448,93.4934 35.9091,93.2674 C35.8734,93.0415 35.8944,92.8104 35.9705,92.5941 C36.0466,92.3778 36.1754,92.1827 36.3459,92.0255 L44.1557,85.1295 C44.9618,84.5027 45.9054,84.0651 46.9133,83.8504 C47.9211,83.6358 48.9663,83.6499 49.9676,83.8918 L119.166,102.811 L136.602,87.4281 C139.271,85.1655 142.059,83.0408 144.957,81.0627 C152.767,75.4045 164.209,68.8623 168.931,73.99 C173.653,79.1177 165.662,89.1963 159.123,96.269 C155.128,100.513 151.495,103.695 151.495,103.695 L134.059,118.902 L145.865,188.038 C146.026,189.026 145.946,190.037 145.63,190.99 C145.314,191.942 144.773,192.809 144.049,193.519 L136.239,200.238 C136.077,200.404 135.877,200.529 135.655,200.604 C135.433,200.678 135.195,200.698 134.963,200.663 C134.731,200.629 134.511,200.54 134.322,200.404 C134.133,200.268 133.981,200.09 133.878,199.885 L107.179,143.303 L86.6556,161.338 C63.5894,181.495 49.2411,209.963 91.9226,253.814 L113.899,278.569 Z" id="Shape"></path>
        </g>
    </g>
</svg>