<?xml version="1.0" encoding="UTF-8"?>
<svg width="4938px" height="1372px" viewBox="0 0 4938 1372" version="1.1" xmlns="http://www.w3.org/2000/svg" xmlns:xlink="http://www.w3.org/1999/xlink">
    <!-- Generator: Sketch 49.1 (51147) - http://www.bohemiancoding.com/sketch -->
    <title>auth0_fga_light</title>
    <desc>Created with Sketch.</desc>
    <defs></defs>
    <g id="auth0_fga_light" stroke="none" stroke-width="1" fill="none" fill-rule="evenodd">
        <g id="Auth0_Shield-Lockup_Black_RGB" transform="translate(191.000000, 342.000000)" fill="#000000" fill-rule="nonzero">
            <g id="Group" transform="translate(839.000000, 96.000000)">
                <path d="M0.41,385.3 C0.41,303.06 68.64,271.99 154.53,271.99 L237.99,271.99 C244.08,271.99 247.13,268.94 247.13,262.85 L247.13,250.06 C247.13,205.59 213.63,184.27 164.28,184.27 C125.9,184.27 99.71,197.07 85.69,224.48 C80.82,234.23 76.55,237.88 66.2,237.88 L30.26,237.88 C18.69,237.88 13.2,231.79 13.2,222.65 C13.2,218.38 14.42,212.29 19.29,201.94 C42.44,153.82 87.52,122.75 171.59,122.75 C265.4,122.75 320.84,164.18 320.84,254.94 L320.84,405.41 C320.84,420.64 326.32,424.3 339.11,424.3 L339.72,424.3 C351.9,424.3 357.99,430.39 357.99,442.57 L357.99,473.03 C357.99,485.21 351.9,491.3 339.72,491.3 L318.4,491.3 C283.67,491.3 266.01,482.16 255.04,458.4 C253.21,454.13 251.99,452.92 249.56,452.92 C247.13,452.92 245.29,454.14 240.42,458.4 C213.01,482.77 178.89,495.56 133.2,495.56 C63.75,495.56 0.4,463.27 0.4,385.3 L0.41,385.3 Z M247.13,343.87 L247.13,337.78 C247.13,331.69 244.08,328.64 237.99,328.64 L146.61,328.64 C103.97,328.64 74.12,344.48 74.12,382.25 C74.12,420.02 104.58,435.86 141.13,435.86 C197.79,435.86 247.13,400.52 247.13,343.87 Z" id="Shape"></path>
                <path d="M388.46,332.3 L388.46,145.28 C388.46,133.1 394.55,127.01 406.73,127.01 L443.89,127.01 C456.07,127.01 462.16,133.1 462.16,145.28 L462.16,325.6 C462.16,384.08 483.48,427.33 544.4,427.33 C608.98,427.33 639.43,376.16 639.43,317.07 L639.43,145.27 C639.43,133.09 645.52,127 657.7,127 L694.86,127 C707.04,127 713.13,133.09 713.13,145.27 L713.13,473.02 C713.13,485.2 707.04,491.29 694.86,491.29 L661.36,491.29 C650.39,491.29 644.3,485.81 642.47,474.84 L639.42,458.39 C638.81,454.73 636.98,452.91 633.94,452.91 C631.51,452.91 629.68,454.13 626.64,457.18 C601.66,479.72 571.2,495.56 526.12,495.56 C430.48,495.56 388.44,426.72 388.44,332.3 L388.46,332.3 Z" id="Shape"></path>
                <path d="M781.39,392 L781.39,22.83 C781.39,10.65 787.48,4.56 799.66,4.56 L836.82,4.56 C849,4.56 855.09,10.65 855.09,22.83 L855.09,117.86 C855.09,123.95 858.14,127 864.23,127 L972.06,127 C984.24,127 990.33,133.09 990.33,145.27 L990.33,175.73 C990.33,187.91 984.24,194.01 972.06,194.01 L864.23,194.01 C858.14,194.01 855.09,197.06 855.09,203.15 L855.09,385.3 C855.09,412.1 867.27,424.29 894.68,424.29 L979.36,424.29 C991.54,424.29 997.63,430.38 997.63,442.56 L997.63,473.02 C997.63,485.2 991.54,491.29 979.36,491.29 L891.03,491.29 C814.88,491.29 781.38,460.83 781.38,391.99 L781.39,392 Z" id="Shape"></path>
                <path d="M1048.21,473.02 L1048.21,22.83 C1048.21,10.65 1054.3,4.56 1066.48,4.56 L1103.64,4.56 C1115.82,4.56 1121.91,10.65 1121.91,22.83 L1121.91,164.77 C1121.91,168.43 1124.34,170.86 1127.39,170.86 C1129.22,170.86 1131.04,170.25 1136.53,165.38 C1163.33,141.01 1192.57,122.74 1241.92,122.74 C1336.95,122.74 1379.6,189.75 1379.6,288.44 L1379.6,473.03 C1379.6,485.21 1373.51,491.3 1361.33,491.3 L1324.17,491.3 C1311.99,491.3 1305.9,485.21 1305.9,473.03 L1305.9,292.1 C1305.9,235.44 1283.97,190.97 1224.27,190.97 C1160.3,190.97 1121.93,242.75 1121.93,315.86 L1121.93,473.03 C1121.93,485.21 1115.84,491.3 1103.66,491.3 L1066.5,491.3 C1054.32,491.3 1048.23,485.21 1048.23,473.03 L1048.21,473.02 Z" id="Shape"></path>
                <path d="M1425.9,248.23 C1425.9,83.14 1489.86,0.29 1604.39,0.29 C1718.92,0.29 1782.87,83.14 1782.87,248.23 C1782.87,413.32 1718.91,495.56 1604.39,495.56 C1489.87,495.56 1425.9,412.71 1425.9,248.23 Z M1515.45,303.67 L1676.89,124.57 C1679.33,121.52 1680.54,119.7 1680.54,115.43 C1680.54,112.38 1679.93,108.73 1675.67,103.24 C1659.22,83.14 1636.08,68.52 1604.4,68.52 C1537.39,68.52 1499.62,129.44 1499.62,248.84 C1499.62,265.89 1500.23,281.13 1502.67,301.84 C1503.28,305.5 1505.1,307.93 1508.15,307.93 C1509.98,307.93 1512.42,307.32 1515.46,303.67 L1515.45,303.67 Z M1709.17,247.01 C1709.17,229.95 1708.56,214.72 1706.12,194.01 C1705.51,190.35 1703.69,187.92 1700.64,187.92 C1698.81,187.92 1696.37,188.53 1693.33,192.19 L1531.89,371.29 C1529.46,374.34 1528.24,376.16 1528.24,380.43 C1528.24,383.48 1528.85,387.13 1533.11,392.61 C1549.56,412.71 1572.7,427.33 1604.39,427.33 C1671.4,427.33 1709.16,366.41 1709.16,247.01 L1709.17,247.01 Z" id="Shape"></path>
            </g>
            <g id="Group">
                <path d="M41.19,327.56 C166.63,306.91 264.94,208.59 285.6,83.15 L295.65,22.15 C297.58,10.35 287.89,-0.06 275.96,0.85 C180.45,8.24 90.44,39.86 40.73,60.24 C16.59,70.15 0.8,93.61 0.8,119.72 L0.8,312.54 C0.8,323.88 10.94,332.51 22.14,330.67 C22.14,330.67 41.19,327.55 41.19,327.55 L41.19,327.56 Z" id="Shape"></path>
                <path d="M346.1,83.16 C366.75,208.6 465.07,306.91 590.51,327.57 L609.56,330.69 C620.76,332.53 630.9,323.9 630.9,312.56 L630.9,119.74 C630.9,93.62 615.11,70.17 590.97,60.26 C541.26,39.84 451.21,8.26 355.74,0.87 C343.81,-0.05 334.08,10.33 336.05,22.17 L346.1,83.17 L346.1,83.16 Z" id="Shape"></path>
                <path d="M590.5,388.01 C465.06,408.66 366.75,506.98 346.09,632.42 L333.56,751.48 C332.41,762.22 344.35,769.79 353.34,763.78 C353.43,763.73 353.48,763.69 353.57,763.64 C432.24,710.58 611.7,571.69 629.46,398.2 C630.33,389.66 622.76,382.69 614.31,384.06 L590.53,387.96 L590.48,388.01 L590.5,388.01 Z" id="Shape"></path>
                <path d="M285.6,632.42 C264.95,506.98 166.63,408.67 41.19,388.01 L15.62,383.79 C8.09,382.55 1.35,388.79 2.08,396.41 C18.92,570.87 200.86,710.63 280.22,763.78 C288.44,769.24 299.31,762.68 298.26,752.86 L285.59,632.42 L285.6,632.42 Z" id="Shape"></path>
            </g>
        </g>
        <text id="FGA" font-family="Inter-Regular_Medium, Inter" font-size="800" font-weight="400" letter-spacing="1.33333325" fill="#000000">
            <tspan x="3094" y="931">FGA</tspan>
        </text>
    </g>
</svg>