<?xml version="1.0" encoding="UTF-8"?>
<svg id="Logos" xmlns="http://www.w3.org/2000/svg" viewBox="0 0 2827.37 1258.56">
  <defs>
    <style>
      .cls-1 {
        fill-rule: evenodd;
      }
    </style>
  </defs>
  <g id="Logomark_Black">
    <path class="cls-1" d="M667.04,252.97l-15.68,193.53.03.02c-7.42-.91-14.94-1.42-22.59-1.42-9.54,0-18.92.72-28.06,2.12l-8.91-93.85c-.28-2.93,2.05-5.49,5.01-5.45h16.03l-7.72-94.95c-.26-2.91,2.05-5.42,4.98-5.42h51.96c2.91,0,5.21,2.51,4.98,5.42ZM535.92,262.58c-.77-2.82-3.79-4.38-6.54-3.37l-48.82,17.78c-2.75,1-4.05,4.14-2.84,6.8l39.72,86.57-15.08,5.45c-2.77,1-4.1,4.19-2.82,6.87l40.46,85.15c14.68-8.08,30.58-14.17,47.35-18.01l-51.45-187.22ZM416.02,316.48l112.36,158.32.02.02c-14.24,9.26-27.13,20.43-38.3,33.16l-67.2-66.21c-2.12-2.07-1.95-5.52.3-7.4l12.29-10.29-66.92-67.77c-2.05-2.07-1.88-5.47.35-7.35l39.79-33.42c2.26-1.88,5.61-1.44,7.31.93ZM321.76,408.13c-2.4-1.65-5.72-.91-7.19,1.61l-25.97,45.01c-1.47,2.54-.44,5.77,2.19,7.03l86.07,40.8-8.05,13.87c-1.49,2.56-.44,5.84,2.26,7.07l85.74,39.21c6.21-15.94,14.52-30.81,24.66-44.24l-159.71-110.35ZM258.36,530.46c.51-2.89,3.35-4.72,6.19-3.98l187.8,49.06c-4.86,15.87-7.59,32.65-7.96,50.03l-94.03-7.54c-2.96-.23-5.05-2.96-4.54-5.87l2.82-15.78-94.82-8.89c-2.91-.28-4.98-2.98-4.47-5.87l9-51.18ZM251.26,657.3c-2.91.28-4.98,2.98-4.47,5.86l9.03,51.18c.51,2.88,3.37,4.72,6.19,3.98l92.14-24.08,2.75,15.78c.51,2.91,3.42,4.75,6.26,3.96l90.89-25.09c-5.35-15.75-8.66-32.42-9.54-49.76l-193.24,18.18ZM281.32,791.78c-1.47-2.54-.47-5.77,2.19-7.03l175.35-83.15c6.68,15.73,15.5,30.33,26.06,43.45l-76.85,54.66c-2.4,1.72-5.77.98-7.24-1.58l-7.98-13.89-78.34,54.15c-2.42,1.68-5.72.93-7.19-1.61l-25.99-45.01ZM493.78,755.32l-136.4,138.19c-2.05,2.07-1.88,5.47.35,7.36l39.81,33.39c2.23,1.88,5.61,1.44,7.31-.93l55.1-77.68,12.26,10.33c2.26,1.91,5.68,1.44,7.35-.98l53.49-77.61c-14.52-8.84-27.71-19.67-39.25-32.02l-.02-.04ZM466.84,977.21c-2.75-1-4.05-4.14-2.84-6.8h.02l80.9-176.49c14.89,7.61,30.95,13.29,47.84,16.64l-23.73,91.25c-.74,2.86-3.79,4.47-6.56,3.44l-15.05-5.52-25.22,91.85c-.77,2.82-3.79,4.38-6.54,3.37l-48.82-17.76ZM606.17,812.68h0s-.02,0-.02,0h.02ZM606.17,812.68l-15.68,193.55c-.23,2.91,2.07,5.42,4.98,5.42h51.96c2.93,0,5.24-2.51,4.98-5.42l-7.72-94.95h16.03c2.95.05,5.28-2.51,5-5.44l-8.91-93.85c-9.14,1.39-18.52,2.12-28.06,2.12-7.65,0-15.16-.51-22.57-1.42ZM793.53,288.76c1.21-2.65-.09-5.79-2.84-6.8l-48.82-17.76c-2.74-1-5.77.56-6.54,3.37l-25.22,91.85-15.05-5.52c-2.77-1.02-5.82.58-6.56,3.44l-23.73,91.25c16.89,3.35,32.95,9.03,47.84,16.64l80.93-176.49ZM900.14,365.68l-136.4,138.19-.03-.05c-11.54-12.36-24.73-23.18-39.25-32.02l53.49-77.61c1.68-2.42,5.09-2.89,7.35-.98l12.26,10.33,55.1-77.68c1.7-2.37,5.07-2.82,7.31-.93l39.81,33.39c2.23,1.89,2.4,5.28.35,7.35ZM974.02,474.43c2.66-1.26,3.65-4.49,2.19-7.03l-25.99-45.01c-1.47-2.54-4.77-3.28-7.19-1.61l-78.34,54.15-7.98-13.89c-1.46-2.56-4.84-3.3-7.24-1.58l-76.85,54.67c10.57,13.13,19.38,27.72,26.06,43.45l175.35-83.15ZM1001.68,544.87l9.03,51.18.02.02c.51,2.89-1.56,5.59-4.47,5.87l-193.26,18.15c-.88-17.34-4.19-34-9.54-49.76l90.88-25.09c2.84-.79,5.75,1.05,6.26,3.96l2.74,15.78,92.14-24.09c2.82-.74,5.68,1.09,6.19,3.98ZM992.96,732.7c2.84.74,5.68-1.09,6.19-3.98l9.01-51.17c.51-2.89-1.56-5.59-4.47-5.87l-94.82-8.89,2.82-15.78c.51-2.91-1.58-5.63-4.54-5.87l-94.02-7.54c-.37,17.38-3.12,34.17-7.96,50.03l187.8,49.04v.02ZM942.93,849.45c-1.46,2.51-4.79,3.26-7.19,1.61l.02-.02-159.73-110.33c10.14-13.43,18.45-28.3,24.66-44.24l85.74,39.22c2.7,1.23,3.75,4.51,2.26,7.07l-8.05,13.87,86.07,40.79c2.63,1.26,3.65,4.49,2.19,7.03l-25.97,45.01ZM729.12,784.38l112.36,158.34c1.7,2.38,5.05,2.82,7.31.93l39.79-33.42c2.23-1.88,2.39-5.28.35-7.36l-66.92-67.77,12.29-10.29c2.26-1.88,2.42-5.33.3-7.4l-67.2-66.21c-11.17,12.73-24.06,23.9-38.3,33.16h.02ZM728.14,999.97c-2.74,1-5.77-.56-6.54-3.37l-51.44-187.22c16.77-3.84,32.67-9.94,47.35-18.01l40.46,85.15c1.28,2.68-.04,5.87-2.82,6.87l-15.08,5.44,39.72,86.57c1.21,2.65-.09,5.79-2.84,6.79l-48.82,17.78Z"/>
  </g>
  <g id="Wordmark_Black">
    <path d="M2365.04,744.13c-64.1,0-109.43-49.86-109.43-115.26s45.33-115.26,109.43-115.26,108.13,49.86,108.13,115.26-44.68,115.26-108.13,115.26ZM2354.68,812.77c51.8,0,95.83-20.07,123.67-62.16,5.18,40.79,34.97,55.69,72.52,55.69h29.79v-64.75h-12.95c-21.37,0-26.55-10.36-26.55-34.32v-255.76h-68.64v52.45c-23.31-36.91-67.34-58.92-117.85-58.92-90,0-172.88,75.11-172.88,183.89s82.88,183.89,172.88,183.89ZM2001.14,724.06c0,58.28,36.26,82.23,79.64,82.23h83.53v-64.75h-60.87c-25.25,0-30.43-9.71-30.43-34.32v-191.01h91.3v-64.75h-91.3v-119.14h-71.87v391.74ZM1674.16,806.29h71.87v-152.16h23.96l122.38,152.16h90.65l-156.05-192.96,119.79-161.88h-80.94l-97.77,136.62h-22.02v-255.76h-71.87v473.97ZM1441.06,444.99c-100.36,0-183.24,75.11-183.24,183.89s82.88,183.89,183.24,183.89,183.24-75.11,183.24-183.89-82.88-183.89-183.24-183.89ZM1441.06,744.13c-64.1,0-109.43-49.86-109.43-115.26s45.33-115.26,109.43-115.26,109.43,49.86,109.43,115.26-45.33,115.26-109.43,115.26Z"/>
  </g>
</svg>