<svg xmlns="http://www.w3.org/2000/svg" fill="none" viewBox="0 0 24 24" id="Vpn-Key--Streamline-Outlined-Material" height="24" width="24">
  <desc>
    Vpn Key Streamline Icon: https://streamlinehq.com
  </desc>
  <path fill="#000000" d="M7 18c-1.66665 0 -3.083335 -0.58335 -4.25 -1.75S1 13.66665 1 12c0 -1.66665 0.583335 -3.08335 1.75 -4.25C3.916665 6.58335 5.33335 6 7 6c1.3 0 2.39585 0.3125 3.2875 0.9375 0.89165 0.625 1.55415 1.45415 1.9875 2.4875H23v5.15h-2.65V18h-4.65v-3.425h-3.425c-0.43335 1.03335 -1.09585 1.8625 -1.9875 2.4875C9.39585 17.6875 8.3 18 7 18Zm0 -1.5c1.18335 0 2.15415 -0.39165 2.9125 -1.175 0.75835 -0.78335 1.20415 -1.53335 1.3375 -2.25h6.05V16.5h1.55v-3.425H21.5v-2.15H11.25c-0.13335 -0.71665 -0.57915 -1.46665 -1.3375 -2.25C9.15415 7.89165 8.18335 7.5 7 7.5c-1.25 0 -2.3125 0.4375 -3.1875 1.3125S2.5 10.75 2.5 12s0.4375 2.3125 1.3125 3.1875S5.75 16.5 7 16.5Zm0 -2.8c0.48335 0 0.8875 -0.1625 1.2125 -0.4875 0.325 -0.325 0.4875 -0.72915 0.4875 -1.2125 0 -0.48335 -0.1625 -0.8875 -0.4875 -1.2125 -0.325 -0.325 -0.72915 -0.4875 -1.2125 -0.4875 -0.48335 0 -0.8875 0.1625 -1.2125 0.4875 -0.325 0.325 -0.4875 0.72915 -0.4875 1.2125 0 0.48335 0.1625 0.8875 0.4875 1.2125 0.325 0.325 0.72915 0.4875 1.2125 0.4875Z" stroke-width="0.5"></path>
</svg>