<?xml version="1.0" encoding="UTF-8"?>
<svg width="6242px" height="2028px" viewBox="0 0 6242 2028" version="1.1" xmlns="http://www.w3.org/2000/svg" xmlns:xlink="http://www.w3.org/1999/xlink">
    <!-- Generator: Sketch 49.1 (51147) - http://www.bohemiancoding.com/sketch -->
    <title>org-logo</title>
    <desc>Created with Sketch.</desc>
    <defs></defs>
    <g id="org-logo" stroke="none" stroke-width="1" fill="none" fill-rule="evenodd">
        <g id="Group-2" transform="translate(1580.000000, 693.000000)" fill="#FFFFFF">
            <path d="M0.765395401,321.29121 C0.765395401,112.265968 81.9440157,7.36717742 227.306545,7.36717742 C372.669075,7.36717742 453.835003,112.265968 453.835003,321.29121 C453.835003,530.316452 372.656383,634.442903 227.306545,634.442903 C81.9567078,634.442903 0.765395401,529.544113 0.765395401,321.29121 Z M114.423079,391.485403 L319.324212,164.721694 C322.421082,160.86 323.956826,158.555645 323.956826,153.149274 C323.956826,149.287581 323.182608,144.66621 317.775777,137.715161 C296.897285,112.265968 267.527785,93.7551613 227.319237,93.7551613 C142.269529,93.7551613 94.3314975,170.887742 94.3314975,322.063548 C94.3314975,343.651048 95.1057151,362.946855 98.2025855,389.168387 C98.9768031,393.802419 101.286764,396.879113 105.157852,396.879113 C107.480505,396.879113 110.577375,396.106774 114.435771,391.485403 L114.423079,391.485403 Z M360.294285,319.746532 C360.294285,298.146371 359.520067,278.863226 356.423197,252.641694 C355.648979,248.007661 353.339019,244.930968 349.46793,244.930968 C347.145278,244.930968 344.048407,245.703306 340.190011,250.337339 L135.288878,477.101048 C132.2047,480.962742 130.656265,483.267097 130.656265,488.673468 C130.656265,492.535161 131.430482,497.156532 136.837314,504.094919 C157.715805,529.544113 187.085306,548.054919 227.306545,548.054919 C312.356254,548.054919 360.281593,470.922339 360.281593,319.746532 L360.294285,319.746532 Z" id="Shape" fill-rule="nonzero"></path>
            <path d="M1990,630 L1990,0 L2194.3,0 C2268.10037,0 2328.84976,12.899871 2376.55,38.7 C2424.25024,64.500129 2459.64988,100.949764 2482.75,148.05 C2505.85012,195.150236 2517.4,251.099676 2517.4,315.9 C2517.4,380.100321 2505.85012,435.749764 2482.75,482.85 C2459.64988,529.950235 2424.25024,566.249873 2376.55,591.75 C2328.84976,617.250127 2268.10037,630 2194.3,630 L1990,630 Z M2085.4,549 L2190.7,549 C2247.70029,549 2292.84983,539.700093 2326.15,521.1 C2359.45017,502.499907 2383.44993,475.800174 2398.15,441 C2412.85007,406.199826 2420.2,364.500243 2420.2,315.9 C2420.2,267.299757 2412.85007,225.300177 2398.15,189.9 C2383.44993,154.499823 2359.45017,127.350094 2326.15,108.45 C2292.84983,89.5499055 2247.70029,80.1 2190.7,80.1 L2085.4,80.1 L2085.4,549 Z M2777.9,640.8 C2734.09978,640.8 2695.25017,631.050097 2661.35,611.55 C2627.44983,592.049902 2600.9001,564.900174 2581.7,530.1 C2562.4999,495.299826 2552.9,454.800231 2552.9,408.6 C2552.9,361.799766 2562.34991,320.700177 2581.25,285.3 C2600.15009,249.899823 2626.54983,222.300099 2660.45,202.5 C2694.35017,182.699901 2733.79978,172.8 2778.8,172.8 C2822.60022,172.8 2860.69984,182.549902 2893.1,202.05 C2925.50016,221.550098 2950.69991,247.499838 2968.7,279.9 C2986.70009,312.300162 2995.7,347.999805 2995.7,387 C2995.7,393.00003 2995.55,399.449966 2995.25,406.35 C2994.95,413.250034 2994.5,420.899958 2993.9,429.3 L2646.5,429.3 C2649.50002,472.500216 2663.74987,505.349888 2689.25,527.85 C2714.75013,550.350113 2744.29983,561.6 2777.9,561.6 C2804.90014,561.6 2827.54991,555.450061 2845.85,543.15 C2864.15009,530.849939 2877.79996,514.200105 2886.8,493.2 L2982.2,493.2 C2970.19994,535.20021 2946.35018,570.299859 2910.65,598.5 C2874.94982,626.700141 2830.70026,640.8 2777.9,640.8 Z M2777.9,251.1 C2746.09984,251.1 2717.90012,260.549905 2693.3,279.45 C2668.69988,298.350094 2653.70003,326.699811 2648.3,364.5 L2900.3,364.5 C2898.49999,329.699826 2886.20011,302.100102 2863.4,281.7 C2840.59989,261.299898 2812.10017,251.1 2777.9,251.1 Z M3054.7,630 L3054.7,183.6 L3139.3,183.6 L3147.4,246.6 C3161.80007,223.799886 3180.84988,205.800066 3204.55,192.6 C3228.25012,179.399934 3255.69984,172.8 3286.9,172.8 C3357.70035,172.8 3406.89986,200.699721 3434.5,256.5 C3450.70008,230.699871 3472.44986,210.300075 3499.75,195.3 C3527.05014,180.299925 3556.59984,172.8 3588.4,172.8 C3644.20028,172.8 3687.99984,189.599832 3719.8,223.2 C3751.60016,256.800168 3767.5,306.899667 3767.5,373.5 L3767.5,630 L3672.1,630 L3672.1,383.4 C3672.1,296.999568 3639.10033,253.8 3573.1,253.8 C3539.49983,253.8 3512.05011,266.399874 3490.75,291.6 C3469.44989,316.800126 3458.8,352.799766 3458.8,399.6 L3458.8,630 L3363.4,630 L3363.4,383.4 C3363.4,296.999568 3330.10033,253.8 3263.5,253.8 C3230.49984,253.8 3203.35011,266.399874 3182.05,291.6 C3160.74989,316.800126 3150.1,352.799766 3150.1,399.6 L3150.1,630 L3054.7,630 Z" id="Dem"></path>
            <path d="M3839,327.924032 C3839,118.89879 3920.17862,14 4065.54115,14 C4210.90368,14 4292.06961,118.89879 4292.06961,327.924032 C4292.06961,536.949274 4210.89099,641.075726 4065.54115,641.075726 C3920.19131,641.075726 3839,536.176935 3839,327.924032 Z M3952.65768,398.118226 L4157.55882,171.354516 C4160.65569,167.492823 4162.19143,165.188468 4162.19143,159.782097 C4162.19143,155.920403 4161.41721,151.299032 4156.01038,144.347984 C4135.13189,118.89879 4105.76239,100.387984 4065.55384,100.387984 C3980.50413,100.387984 3932.5661,177.520565 3932.5661,328.696371 C3932.5661,350.283871 3933.34032,369.579677 3936.43719,395.80121 C3937.21141,400.435242 3939.52137,403.511935 3943.39246,403.511935 C3945.71511,403.511935 3948.81198,402.739597 3952.67038,398.118226 L3952.65768,398.118226 Z M4198.52889,326.379355 C4198.52889,304.779194 4197.75467,285.496048 4194.6578,259.274516 C4193.88358,254.640484 4191.57362,251.56379 4187.70254,251.56379 C4185.37988,251.56379 4182.28301,252.336129 4178.42462,256.970161 L3973.52348,483.733871 C3970.4393,487.595565 3968.89087,489.899919 3968.89087,495.30629 C3968.89087,499.167984 3969.66509,503.789355 3975.07192,510.727742 C3995.95041,536.176935 4025.31991,554.687742 4065.54115,554.687742 C4150.59086,554.687742 4198.5162,477.555161 4198.5162,326.379355 L4198.52889,326.379355 Z" id="Shape" fill-rule="nonzero"></path>
            <path d="M564.3,619 L564.3,172.6 L649.8,172.6 L657.9,257.2 C673.500078,227.799853 695.24986,204.550085 723.15,187.45 C751.050139,170.349914 784.799802,161.8 824.4,161.8 L824.4,261.7 L798.3,261.7 C771.899868,261.7 748.350103,266.049957 727.65,274.75 C706.949896,283.450043 690.450061,298.149896 678.15,318.85 C665.849938,339.550103 659.7,368.199817 659.7,404.8 L659.7,619 L564.3,619 Z M1079.7,482.2 C1056.29988,482.2 1034.7001,479.500027 1014.9,474.1 L976.2,511.9 C982.800033,516.100021 990.899952,519.699985 1000.5,522.7 C1010.10005,525.700015 1023.59991,528.399988 1041,530.8 C1058.40009,533.200012 1082.09985,535.599988 1112.1,538 C1171.5003,543.400027 1214.39987,557.649885 1240.8,580.75 C1267.20013,603.850115 1280.4,634.599808 1280.4,673 C1280.4,699.400132 1273.35007,724.449881 1259.25,748.15 C1245.14993,771.850119 1223.25015,791.049927 1193.55,805.75 C1163.84985,820.450073 1125.90023,827.8 1079.7,827.8 C1017.29969,827.8 966.750193,815.950118 928.05,792.25 C889.349806,768.549882 870,732.70024 870,684.7 C870,666.099907 874.94995,647.650092 884.85,629.35 C894.750049,611.049909 910.499892,593.800081 932.1,577.6 C919.499937,572.199973 908.550046,566.350032 899.25,560.05 C889.949953,553.749969 881.700036,547.300033 874.5,540.7 L874.5,519.1 L951.9,439.9 C917.099826,409.89985 899.7,370.600243 899.7,322 C899.7,292.599853 906.749929,265.750121 920.85,241.45 C934.95007,217.149878 955.499865,197.800072 982.5,183.4 C1009.50013,168.999928 1041.89981,161.8 1079.7,161.8 C1104.90013,161.8 1128.29989,165.399964 1149.9,172.6 L1316.4,172.6 L1316.4,235.6 L1237.2,240.1 C1251.60007,264.700123 1258.8,291.99985 1258.8,322 C1258.8,352.00015 1251.75007,378.99988 1237.65,403 C1223.54993,427.00012 1203.15013,446.199928 1176.45,460.6 C1149.74987,475.000072 1117.50019,482.2 1079.7,482.2 Z M1079.7,407.5 C1107.30014,407.5 1129.64991,400.150073 1146.75,385.45 C1163.85009,370.749927 1172.4,349.900135 1172.4,322.9 C1172.4,295.299862 1163.85009,274.300072 1146.75,259.9 C1129.64991,245.499928 1107.30014,238.3 1079.7,238.3 C1051.49986,238.3 1028.85009,245.499928 1011.75,259.9 C994.649914,274.300072 986.1,295.299862 986.1,322.9 C986.1,349.900135 994.649914,370.749927 1011.75,385.45 C1028.85009,400.150073 1051.49986,407.5 1079.7,407.5 Z M960,675.7 C960,701.500129 971.399886,720.849935 994.2,733.75 C1017.00011,746.650065 1045.49983,753.1 1079.7,753.1 C1112.70016,753.1 1139.3999,746.05007 1159.8,731.95 C1180.2001,717.84993 1190.4,699.100117 1190.4,675.7 C1190.4,658.299913 1183.50007,643.450061 1169.7,631.15 C1155.89993,618.849939 1129.80019,611.200015 1091.4,608.2 C1062.59986,606.399991 1037.10011,603.700018 1014.9,600.1 C993.899895,611.500057 979.500039,623.799934 971.7,637 C963.899961,650.200066 960,663.099937 960,675.7 Z M1581.6,629.8 C1525.19972,629.8 1478.70018,616.000138 1442.1,588.4 C1405.49982,560.799862 1384.50003,524.200228 1379.1,478.6 L1475.4,478.6 C1480.20002,499.000102 1491.59991,516.549926 1509.6,531.25 C1527.60009,545.950074 1551.29985,553.3 1580.7,553.3 C1609.50014,553.3 1630.49993,547.30006 1643.7,535.3 C1656.90007,523.29994 1663.5,509.500078 1663.5,493.9 C1663.5,471.099886 1654.35009,455.65004 1636.05,447.55 C1617.74991,439.449959 1592.40016,432.100033 1560,425.5 C1534.79987,420.099973 1509.75012,412.900045 1484.85,403.9 C1459.94988,394.899955 1439.25008,382.150082 1422.75,365.65 C1406.24992,349.149917 1398,326.800141 1398,298.6 C1398,259.599805 1412.99985,227.05013 1443,200.95 C1473.00015,174.849869 1514.99973,161.8 1569,161.8 C1618.80025,161.8 1659.14985,173.79988 1690.05,197.8 C1720.95015,221.80012 1739.09997,255.699781 1744.5,299.5 L1652.7,299.5 C1649.69998,280.299904 1640.85007,265.300054 1626.15,254.5 C1611.44993,243.699946 1591.80012,238.3 1567.2,238.3 C1543.19988,238.3 1524.60007,243.24995 1511.4,253.15 C1498.19993,263.05005 1491.6,275.799922 1491.6,291.4 C1491.6,307.000078 1500.74991,319.299955 1519.05,328.3 C1537.35009,337.300045 1561.49985,345.399964 1591.5,352.6 C1621.50015,359.200033 1649.24987,366.849956 1674.75,375.55 C1700.25013,384.250043 1720.79992,396.999916 1736.4,413.8 C1752.00008,430.600084 1759.8,455.199838 1759.8,487.6 C1760.4,528.400204 1744.65016,562.299865 1712.55,589.3 C1680.44984,616.300135 1636.80028,629.8 1581.6,629.8 Z" id="rgs"></path>
        </g>
        <g id="icon-organizations" transform="translate(256.000000, 395.000000)" fill="#FFFFFF" fill-rule="nonzero">
            <path d="M0,114 C0,51.0396 51.0396,0 114,0 L645.999,0 C708.96,0 759.999,51.0396 759.999,114 L759.999,1013.334 L114,1013.334 C51.0393,1013.334 0,962.295 0,899.334 L0,114 Z M220.002,190.002 C203.433458,190.002 190.002,203.433458 190.002,220.002 L190.002,286.6686 C190.002,303.237142 203.433458,316.6686 220.002,316.6686 L286.6686,316.6686 C303.237142,316.6686 316.6686,303.237142 316.6686,286.6686 L316.6686,220.002 C316.6686,203.433458 303.237142,190.002 286.6686,190.002 L220.002,190.002 Z M220.002,443.334 C203.433458,443.334 190.002,456.765458 190.002,473.334 L190.002,540.0006 C190.002,556.569142 203.433458,570.0006 220.002,570.0006 L286.6686,570.0006 C303.237142,570.0006 316.6686,556.569142 316.6686,540.0006 L316.6686,473.334 C316.6686,456.765458 303.237142,443.334 286.6686,443.334 L220.002,443.334 Z M220.002,696.666 C203.433458,696.666 190.002,710.097458 190.002,726.666 L190.002,793.3326 C190.002,809.901142 203.433458,823.3326 220.002,823.3326 L286.6686,823.3326 C303.237142,823.3326 316.6686,809.901142 316.6686,793.3326 L316.6686,726.666 C316.6686,710.097458 303.237142,696.666 286.6686,696.666 L220.002,696.666 Z M473.334,190.002 C456.765458,190.002 443.334,203.433458 443.334,220.002 L443.334,286.6686 C443.334,303.237142 456.765458,316.6686 473.334,316.6686 L540.0006,316.6686 C556.569142,316.6686 570.0006,303.237142 570.0006,286.6686 L570.0006,220.002 C570.0006,203.433458 556.569142,190.002 540.0006,190.002 L473.334,190.002 Z M473.334,443.334 C456.765458,443.334 443.334,456.765458 443.334,473.334 L443.334,540.0006 C443.334,556.569142 456.765458,570.0006 473.334,570.0006 L540.0006,570.0006 C556.569142,570.0006 570.0006,556.569142 570.0006,540.0006 L570.0006,473.334 C570.0006,456.765458 556.569142,443.334 540.0006,443.334 L473.334,443.334 Z M473.334,696.666 C456.765458,696.666 443.334,710.097458 443.334,726.666 L443.334,793.3326 C443.334,809.901142 456.765458,823.3326 473.334,823.3326 L540.0006,823.3326 C556.569142,823.3326 570.0006,809.901142 570.0006,793.3326 L570.0006,726.666 C570.0006,710.097458 556.569142,696.666 540.0006,696.666 L473.334,696.666 Z" id="Combined-Shape"></path>
            <path d="M790.002,253.335 L1056.003,253.335 C1118.964,253.335 1170.003,304.374 1170.003,367.335 L1170.003,899.334 C1170.003,962.295 1118.964,1013.334 1056.003,1013.334 L790.002,1013.334 L790.002,253.335 Z M946.668,443.334 C930.099458,443.334 916.668,456.765458 916.668,473.334 L916.668,540.0006 C916.668,556.569142 930.099458,570.0006 946.668,570.0006 L1013.3346,570.0006 C1029.90314,570.0006 1043.3346,556.569142 1043.3346,540.0006 L1043.3346,473.334 C1043.3346,456.765458 1029.90314,443.334 1013.3346,443.334 L946.668,443.334 Z M946.668,696.666 C930.099458,696.666 916.668,710.097458 916.668,726.666 L916.668,793.3326 C916.668,809.901142 930.099458,823.3326 946.668,823.3326 L1013.3346,823.3326 C1029.90314,823.3326 1043.3346,809.901142 1043.3346,793.3326 L1043.3346,726.666 C1043.3346,710.097458 1029.90314,696.666 1013.3346,696.666 L946.668,696.666 Z" id="Combined-Shape"></path>
        </g>
    </g>
</svg>