<?xml version="1.0" encoding="UTF-8"?>
<svg width="299px" height="299px" viewBox="0 0 299 299" version="1.1" xmlns="http://www.w3.org/2000/svg" xmlns:xlink="http://www.w3.org/1999/xlink">
    <!-- Generator: Sketch 49.1 (51147) - http://www.bohemiancoding.com/sketch -->
    <title>travel0-squarelogo</title>
    <desc>Created with Sketch.</desc>
    <defs>
        <linearGradient x1="50%" y1="0%" x2="50%" y2="98.0762283%" id="linearGradient-1">
            <stop stop-color="#FF7E38" offset="0%"></stop>
            <stop stop-color="#FF561A" offset="100%"></stop>
        </linearGradient>
    </defs>
    <g id="travel0-squarelogo" stroke="none" stroke-width="1" fill="none" fill-rule="evenodd">
        <g id="TravelZero-Logo" transform="translate(37.000000, 12.000000)" fill="url(#linearGradient-1)" fill-rule="nonzero">
            <path d="M112.899,275.569 C120.164,267.435 225.506,171.953 225.506,109.36 C225.458,80.3621 213.592,52.5684 192.513,32.0807 C171.435,11.593 142.866,0.0859 113.081,0.08594 L112.354,0.08594 C82.5855,0.08594 54.0359,11.5986 32.9862,32.0914 C11.9364,52.5842 0.11084,80.3784 0.11084,109.36 C0.15655,116.374 1.25803,123.344 3.3801,130.047 C18.0916,159.753 49.1493,159.399 69.8543,141.187 L90.3778,123.151 L35.7091,91.3241 C35.4979,91.224 35.3149,91.0756 35.1755,90.8915 C35.0362,90.7075 34.9448,90.4934 34.9091,90.2674 C34.8734,90.0415 34.8944,89.8104 34.9705,89.5941 C35.0466,89.3778 35.1754,89.1827 35.3459,89.0255 L43.1557,82.1295 C43.9618,81.5027 44.9054,81.0651 45.9133,80.8504 C46.9211,80.6358 47.9663,80.6499 48.9676,80.8918 L118.166,99.811 L135.602,84.4281 C138.271,82.1655 141.059,80.0408 143.957,78.0627 C151.767,72.4045 163.209,65.8623 167.931,70.99 C172.653,76.1177 164.662,86.1963 158.123,93.269 C154.128,97.513 150.495,100.695 150.495,100.695 L133.059,115.902 L144.865,185.038 C145.026,186.026 144.946,187.037 144.63,187.99 C144.314,188.942 143.773,189.809 143.049,190.519 L135.239,197.238 C135.077,197.404 134.877,197.529 134.655,197.604 C134.433,197.678 134.195,197.698 133.963,197.663 C133.731,197.629 133.511,197.54 133.322,197.404 C133.133,197.268 132.981,197.09 132.878,196.885 L106.179,140.303 L85.6556,158.338 C62.5894,178.495 48.2411,206.963 90.9226,250.814 L112.899,275.569 Z" id="Shape"></path>
        </g>
    </g>
</svg>