<?xml version="1.0" encoding="UTF-8" standalone="no"?>
<!-- Created with Inkscape (http://www.inkscape.org/) -->

<svg
   xmlns:dc="http://purl.org/dc/elements/1.1/"
   xmlns:cc="http://creativecommons.org/ns#"
   xmlns:rdf="http://www.w3.org/1999/02/22-rdf-syntax-ns#"
   xmlns:svg="http://www.w3.org/2000/svg"
   xmlns="http://www.w3.org/2000/svg"
   xmlns:sodipodi="http://sodipodi.sourceforge.net/DTD/sodipodi-0.dtd"
   xmlns:inkscape="http://www.inkscape.org/namespaces/inkscape"
   version="1.1"
   id="svg2"
   width="2502.8152"
   height="1524.525"
   viewBox="0 0 2502.8152 1524.525"
   sodipodi:docname="Arcteryx.svg"
   inkscape:version="0.92.4 (5da689c313, 2019-01-14)">
  <metadata
     id="metadata8">
    <rdf:RDF>
      <cc:Work
         rdf:about="">
        <dc:format>image/svg+xml</dc:format>
        <dc:type
           rdf:resource="http://purl.org/dc/dcmitype/StillImage" />
        <dc:title></dc:title>
      </cc:Work>
    </rdf:RDF>
  </metadata>
  <defs
     id="defs6" />
  <sodipodi:namedview
     pagecolor="#ffffff"
     bordercolor="#666666"
     borderopacity="1"
     objecttolerance="10"
     gridtolerance="10"
     guidetolerance="10"
     inkscape:pageopacity="0"
     inkscape:pageshadow="2"
     inkscape:window-width="1920"
     inkscape:window-height="1001"
     id="namedview4"
     showgrid="false"
     inkscape:pagecheckerboard="true"
     fit-margin-top="0"
     fit-margin-left="0"
     fit-margin-right="0"
     fit-margin-bottom="0"
     inkscape:zoom="0.13103824"
     inkscape:cx="1879.4724"
     inkscape:cy="1759.293"
     inkscape:window-x="-9"
     inkscape:window-y="-9"
     inkscape:window-maximized="1"
     inkscape:current-layer="svg2" />
  <path
     style="fill:#010101;stroke-width:0.5985269"
     d="m 590.22722,1522.906 c -13.50457,-3.9918 -23.99082,-10.442 -35.43836,-21.7985 -10.14964,-10.0689 -17.02504,-19.3663 -34.15925,-46.1926 -11.37207,-17.8048 -16.70872,-25.5359 -31.32636,-45.3821 -12.25125,-16.6334 -21.83905,-30.1462 -26.47614,-37.3149 -4.07836,-6.305 -11.09591,-18.4112 -10.80957,-18.648 0.0933,-0.077 3.26693,-0.4707 7.05262,-0.8747 44.14357,-4.7106 68.21489,-20.0959 78.91757,-50.4406 3.58841,-10.1739 4.58076,-17.1346 4.54491,-31.8793 -0.0287,-11.908 -0.1844,-13.8865 -1.62614,-20.6841 -4.95263,-23.3508 -16.32153,-42.2871 -31.62927,-52.6824 -15.8536,-10.7659 -44.74839,-17.3919 -67.7639,-15.5391 -8.2413,0.6634 -18.39261,2.6868 -23.37816,4.6597 l -2.92848,1.1589 0.1075,13.1135 c 0.13215,16.1205 -0.75857,55.4185 -2.3254,102.5932 -3.19098,96.0777 -3.25515,136.5311 -0.27981,176.5655 1.06364,14.3118 1.62572,16.8924 5.56786,25.563 1.61488,3.552 3.08325,6.9969 3.26293,7.6552 0.17967,0.6584 0.49067,1.7708 0.691,2.472 l 0.36432,1.2749 -33.73197,0.4439 c -18.5526,0.2441 -34.29009,0.2667 -34.97211,0.05 -1.19616,-0.3797 -1.13355,-0.6519 1.76434,-7.6731 3.74911,-9.0839 6.14968,-18.471 7.00486,-27.392 1.8838,-19.6515 2.31785,-57.5768 1.1439,-99.954 -0.36935,-13.3322 -0.7126,-56.5608 -0.76288,-96.0636 -0.093,-73.1596 -0.15478,-75.495 -2.49209,-94.268 -1.49039,-11.9706 -4.98866,-27.6885 -7.7827,-34.9681 -0.37067,-0.9657 -0.25635,-1.0737 0.70937,-0.6697 0.63324,0.2649 27.95043,0.6953 60.70483,0.9563 58.02018,0.4623 65.16809,0.6997 81.39966,2.7027 54.36438,6.709 83.04052,28.9852 94.25285,73.2175 3.02764,11.9439 3.56237,16.7714 3.55375,32.0808 -0.007,13.2769 -0.12928,14.9359 -1.6092,21.9071 -5.56247,26.2029 -18.3992,44.0594 -43.52703,60.5482 -7.6797,5.0394 -19.91287,11.5282 -29.13216,15.4525 l -6.08882,2.5917 12.11832,17.9824 c 28.3682,42.0956 54.08187,77.4776 77.22732,106.2649 9.05702,11.2647 25.58523,30.7483 26.6342,31.3967 0.35242,0.2178 0.64079,0.7806 0.64079,1.2508 0,0.6961 -0.80807,0.7866 -4.35237,0.4869 -3.59565,-0.3039 -4.4929,-0.1985 -5.16074,0.6062 -0.69944,0.8427 -2.43241,0.9698 -12.85528,0.9422 -11.01258,-0.029 -12.47688,-0.1589 -17.05471,-1.5121 z m 214.19296,1.1351 c -72.86078,-11.9731 -122.1876,-40.6718 -149.72821,-87.1129 -15.89664,-26.8061 -23.83754,-59.2627 -23.84316,-97.453 -0.008,-55.2737 17.99309,-101.8661 52.14642,-134.9704 34.57737,-33.5153 82.89998,-51.6158 142.37339,-53.3298 26.882,-0.7748 46.46466,1.6058 87.68419,10.6594 10.53408,2.3137 22.88079,4.9415 27.43708,5.8396 l 8.28421,1.633 0.15065,14.024 c 0.10905,10.1519 0.43189,15.5113 1.16934,19.4108 0.56028,2.9627 1.93887,10.1002 3.06356,15.8612 1.12463,5.761 2.36065,13.1524 2.7467,16.4254 0.75276,6.383 0.44536,17.0377 -0.56226,19.486 -0.33865,0.8229 -0.63288,1.1648 -0.65371,0.7597 -0.066,-1.2802 -4.63164,-10.4377 -7.79701,-15.6386 -16.54406,-27.1832 -45.99195,-47.1415 -80.82292,-54.7777 -14.76847,-3.2378 -19.32464,-3.662 -39.20351,-3.6496 -20.01097,0.012 -25.74965,0.6142 -39.79067,4.1734 -17.91068,4.5402 -36.00397,13.2684 -50.12017,24.1781 -22.34552,17.2698 -39.1846,41.8035 -48.51994,70.6913 -12.15471,37.6121 -10.7426,81.3553 3.7703,116.7958 21.39955,52.2577 65.35573,87.2731 119.09878,94.874 10.61272,1.501 36.57298,1.5037 47.88215,0.01 22.57859,-2.9919 41.57338,-8.4929 59.25416,-17.1603 11.17947,-5.4804 18.17751,-10.208 23.59711,-15.9411 2.44438,-2.5859 6.15399,-6.4985 8.24369,-8.6948 4.49607,-4.7258 7.73955,-6.4809 11.97658,-6.4809 3.54873,0 3.76551,0.3084 3.76551,5.3573 0,9.6714 -3.32751,20.6452 -13.42453,44.2727 -3.77779,8.8402 -7.04137,16.7609 -7.25236,17.6016 -0.44542,1.7747 0.67233,1.4804 -16.13251,4.2489 -14.63494,2.4111 -32.56896,4.9875 -52.35477,7.5214 -13.99541,1.7924 -14.15761,1.7989 -42.49541,1.7177 -15.64549,-0.045 -29.11971,-0.1921 -29.94268,-0.3274 z m 1104.11092,-0.8232 c -12.4264,-3.0541 -23.0576,-9.3067 -33.0551,-19.4407 -6.0099,-6.0921 -11.1531,-12.8136 -24.1437,-31.5533 -5.6496,-8.15 -15.7458,-22.5595 -22.4358,-32.0212 -28.2396,-39.9391 -46.6951,-66.8486 -55.721,-81.2454 l -3.3772,-5.3867 6.7564,-0.7125 c 40.0868,-4.2269 63.5557,-17.1239 76.0192,-41.775 6.8015,-13.4525 9.4269,-23.7318 9.8717,-38.6512 0.4959,-16.6326 -1.662,-27.0733 -8.4656,-40.9608 -4.8803,-9.9614 -9.8989,-17.037 -17.405,-24.5384 -8.9571,-8.9515 -17.8128,-14.9483 -29.2418,-19.8015 -20.7053,-8.7923 -44.9406,-9.7471 -68.4629,-2.6973 l -4.3393,1.3006 -0.01,2.8176 c -0.015,5.698 -1.2259,49.9502 -2.3785,86.9107 -2.6762,85.81 -3.2794,125.4447 -2.4415,160.3973 0.7122,29.7027 1.5179,45.1455 2.7747,53.1787 0.4808,3.0734 2.4666,10.4772 4.4129,16.4528 1.9463,5.9757 3.4007,11.0025 3.2319,11.1709 -0.1687,0.1682 -13.9528,0.3309 -30.6313,0.3616 -18.623,0.034 -31.9378,0.3071 -34.505,0.7075 -2.2993,0.3586 -4.2646,0.5677 -4.3676,0.4648 -0.1029,-0.1029 1.4277,-4.0712 3.4014,-8.8183 6.3677,-15.3152 6.8905,-18.5232 7.8693,-48.2904 0.4572,-13.9042 0.424,-27.8404 -0.1249,-52.4527 -0.4209,-18.8744 -0.7619,-69.4713 -0.7805,-115.8149 -0.03,-74.1704 -0.1378,-83.3511 -1.0929,-92.9673 -1.758,-17.7004 -4.2892,-30.6134 -7.6786,-39.1731 -0.9485,-2.3952 -1.7245,-4.4196 -1.7245,-4.4988 0,-0.079 2.7608,0.097 6.1349,0.39 3.3742,0.2937 32.3953,0.5712 64.4913,0.6168 42.9721,0.061 60.2498,0.286 65.5387,0.8535 16.8421,1.8072 29.4553,4.27 40.4006,7.8886 7.5541,2.4974 20.1978,8.6823 25.6078,12.5265 20.9882,14.9135 34.8218,40.9572 38.4601,72.4062 0.9487,8.2009 0.4472,28.445 -0.8838,35.6731 -2.1184,11.504 -7.3444,23.8665 -14.0465,33.2286 -11.2322,15.69 -26.3389,27.4982 -50.3347,39.3442 -7.0775,3.494 -12.9666,6.4241 -13.0866,6.5113 -0.6882,0.4998 25.4754,40.0824 39.7078,60.0734 25.7469,36.1643 58.599,78.1778 72.6582,92.9203 l 4.4227,4.6376 -4.447,-0.376 c -3.658,-0.3092 -4.6201,-0.2028 -5.4224,0.5996 -1.5307,1.5306 -24.6621,1.3401 -31.1586,-0.2567 z m -524.1383,-5.1952 c 0,-0.3334 0.6396,-2.0536 1.4213,-3.8228 2.2262,-5.038 4.9272,-14.0007 6.2906,-20.8733 4.361,-21.985 5.0537,-47.2459 3.0036,-109.5304 -0.8377,-25.4509 -0.3583,-80.9471 0.9101,-105.3408 2.1575,-41.4962 1.8701,-71.5113 -0.8657,-90.3775 -1.6165,-11.147 -3.085,-15.9773 -7.2106,-23.7161 -4.1747,-7.8312 -4.3306,-8.6347 -1.6041,-8.2664 6.3169,0.8533 62.4028,1.4576 135.2741,1.4576 h 83.6371 v 25.1381 c 0,13.826 -0.097,25.1382 -0.215,25.1382 -0.1182,0 -2.2056,-0.9183 -4.6386,-2.0406 -8.9657,-4.1358 -19.134,-6.7248 -33.5627,-8.5459 -8.769,-1.1067 -32.8409,-1.3071 -92.2115,-0.7677 l -30.9732,0.2814 v 56.7104 c -3e-4,31.1908 0.067,56.7224 0.149,56.737 0.082,0.014 10.2498,0.4118 22.5944,0.8826 73.8668,2.8177 103.2038,1.4355 128.6282,-6.0601 1.3015,-0.3837 1.4023,-0.2852 1.0391,1.0164 -1.1716,4.1998 -1.6123,14.6977 -0.9948,23.6988 0.3571,5.2054 0.8151,13.1375 1.0177,17.6269 l 0.3683,8.1627 -1.8712,0.411 c -2.2016,0.4835 -2.8868,0.2995 -9.9782,-2.6796 -3.6087,-1.516 -7.2637,-2.5302 -11.0728,-3.0723 -8.2574,-1.1754 -45.8539,-1.0168 -69.3039,0.2924 -19.4646,1.0867 -47.0923,1.4205 -55.6386,0.6723 l -4.9378,-0.4324 v 62.2287 62.2286 l 14.5143,0.3805 c 7.9828,0.2093 23.4024,0.689 34.2656,1.0662 24.1058,0.8368 60.9578,0.367 73.9181,-0.9424 21.5147,-2.1736 35.2935,-5.3732 45.7327,-10.6197 l 3.5365,-1.7774 -0.3858,7.1752 c -0.6859,12.7568 -4.6143,45.2356 -5.5884,46.2033 -0.1676,0.1665 -32.8039,0.2136 -72.5251,0.1047 -65.8044,-0.1806 -133.1765,0.4931 -147.1857,1.4717 -3.5924,0.2509 -5.5364,0.174 -5.5364,-0.2193 z m 648.2046,0.1878 c 0,-0.2112 0.6419,-1.6545 1.4265,-3.2072 4.4264,-8.7598 7.7727,-25.6983 9.3667,-47.4134 0.5913,-8.0554 2.0485,-89.1586 1.9787,-110.1289 -0.017,-5.1024 -0.3358,-10.8584 -0.7085,-12.7911 -1.2831,-6.6547 -6.6852,-15.9712 -19.0751,-32.897 -3.1725,-4.334 -14.2911,-20.2696 -24.7079,-35.4123 -41.0376,-59.6555 -61.6984,-87.6139 -83.0372,-112.3667 l -5.541,-6.4274 5.5333,0.4422 c 7.4084,0.5919 48.5343,0.5631 64.0391,-0.045 l 12.4191,-0.4871 -0.6601,1.6841 c -0.363,0.9262 -0.8028,4.533 -0.9773,8.015 l -0.3173,6.3309 5.5483,10.1286 c 10.209,18.6368 21.8657,37.3382 38.1094,61.1404 11.7765,17.2565 36.0054,51.297 36.6719,51.5223 0.3026,0.1023 0.8808,-0.4364 1.285,-1.197 0.4041,-0.7608 8.9579,-13.4816 19.0082,-28.2686 29.0946,-42.8064 39.3309,-59.3969 51.3202,-83.1772 l 6.907,-13.6998 -0.2755,-5.1538 c -0.1515,-2.8346 -0.4598,-5.9618 -0.6851,-6.9493 l -0.4096,-1.7956 4.9841,0.4618 c 2.7412,0.254 29.7961,0.6163 60.1221,0.8049 l 55.1379,0.3431 0.3177,7.8737 c 0.384,9.5195 1.5748,14.103 6.1415,23.6387 4.0081,8.3694 8.5855,15.4057 20.3097,31.2194 10.9034,14.7069 12.0551,16.4132 26.0564,38.605 6.0231,9.5465 13.6224,21.3286 16.8874,26.1826 l 5.9363,8.8252 1.3636,-1.6429 c 4.8802,-5.8802 14.4741,-19.5608 27.1757,-38.7516 8.0614,-12.18 17.5425,-26.1856 21.0689,-31.1234 19.5509,-27.3756 26.0361,-41.517 27.3173,-59.5672 l 0.3821,-5.382 37.1683,0.1541 c 36.794,0.1526 37.1663,0.1662 36.9668,1.3512 -0.2929,1.7409 -2.0431,3.4637 -8.9932,8.8528 -10.8524,8.4148 -20.37,21.1711 -47.6527,63.8682 -13.1948,20.6498 -17.7387,27.4225 -34.2502,51.0506 -13.8812,19.8641 -22.3468,32.582 -28.5449,42.883 l -5.1426,8.5469 5.5919,8.1636 c 3.0755,4.49 15.5008,23.2464 27.6118,41.681 44.8937,68.3345 67.4097,99.3968 91.1089,125.6907 l 5.9341,6.5838 -41.1621,0.01 -41.1621,0.01 0.4249,-1.5048 c 0.2337,-0.8276 0.3541,-4.6022 0.2676,-8.3879 l -0.1573,-6.883 -6.0528,-11.0728 c -14.9173,-27.2895 -29.345,-49.6164 -58.4982,-90.5262 l -13.5415,-19.0022 -1.3515,1.6449 c -3.2191,3.9182 -11.5202,16.2438 -24.3672,36.1805 -7.5812,11.765 -18.0561,27.2208 -23.2774,34.3461 -12.0157,16.3973 -15.8332,22.2606 -19.8405,30.4739 -4.8465,9.933 -6.3567,15.6696 -6.7234,25.5395 l -0.304,8.1823 -4.8627,0.3425 c -2.6744,0.1883 -20.6563,0.4117 -39.9598,0.4963 l -35.0971,0.1539 6.0686,-6.2849 c 20.5968,-21.331 39.9933,-46.8238 69.6757,-91.5742 29.632,-44.6744 49.1413,-73.8508 51.8796,-77.5866 l 2.6889,-3.6684 -8.5473,-13.6889 c -31.5658,-50.5539 -55.8345,-86.741 -78.2208,-116.6354 -11.0797,-14.7955 -23.7854,-30.8241 -24.4342,-30.8241 -0.4754,0 -7.0406,8.4855 -16.9023,21.8462 -15.5956,21.1291 -33.6597,48.0806 -65.7903,98.1584 -11.6167,18.1054 -22.6738,35.2307 -24.5714,38.0561 l -3.4502,5.1372 -0.3525,24.7892 c -0.1939,13.6341 -0.6099,29.5026 -0.9246,35.2634 -1.074,19.6661 -1.4197,52.3463 -0.6741,63.7431 1.4216,21.7295 4.608,37.4634 10.1626,50.1807 0.6959,1.5934 1.0969,3.1694 0.8912,3.5023 -0.2491,0.4031 -8.3937,0.4635 -24.3919,0.1809 -22.063,-0.3898 -41.7393,0.1606 -46.3129,1.2955 -0.7407,0.1838 -1.3467,0.1613 -1.3467,-0.05 z M 0,1515.8857 c 0,-1.0785 1.0244985,-2.2344 4.2746792,-4.8229 2.5704936,-2.0472 3.6298862,-3.9241 14.1599498,-25.0873 26.529526,-53.3188 38.346482,-79.7973 97.641941,-218.7879 28.28381,-66.2983 49.41481,-113.7362 52.4157,-117.6707 1.38092,-1.8104 1.991,-2.1389 3.97356,-2.1389 h 2.3421 l 4.22446,8.8283 c 19.3007,40.3346 31.23437,67.4385 63.18086,143.4968 38.78915,92.3493 50.61078,118.8911 72.11052,161.9016 10.60027,21.206 17.69497,34.5787 27.38776,51.6229 l 1.95718,3.4416 h -34.121 -34.121 l -0.0287,-7.332 c -0.0633,-15.9916 -3.36313,-27.1569 -16.8489,-57.0097 -3.86642,-8.5589 -7.74769,-17.2691 -8.62507,-19.3559 -0.87738,-2.0869 -11.55528,-26.5545 -23.7286,-54.3726 -24.40433,-55.768 -37.55972,-86.4808 -47.85216,-111.7166 l -6.79502,-16.6604 -1.68132,3.325 c -6.35839,12.5745 -26.90086,60.0835 -51.62576,119.3963 -24.453,58.6605 -27.62603,65.9576 -36.139657,83.1126 -4.271806,8.6078 -8.83695,18.4277 -10.144732,21.822 -4.474288,11.6133 -6.369762,21.8388 -6.023694,32.4968 l 0.204397,6.2958 H 33.068852 c -26.8487807,0 -33.06855273654,-0.1487 -33.06855273654,-0.7848 z m 1183.6802,-4.6033 c 1.3972,-2.7981 3.2236,-7.7808 4.0588,-11.0727 2.7529,-10.8512 3.3393,-17.9362 3.914,-47.2837 0.2965,-15.1427 0.8626,-36.151 1.258,-46.6851 0.7783,-20.7371 0.5037,-70.9563 -0.6939,-126.8877 -0.3766,-17.5927 -0.5054,-42.4775 -0.2891,-55.8697 l 0.3901,-24.1477 -39.6787,0.2906 c -22.2804,0.1632 -42.6967,0.5842 -46.5617,0.9602 -20.9461,2.0378 -32.69,4.6731 -44.8265,10.0593 -0.7013,0.3113 -0.77,-0.8647 -0.4301,-7.358 1.1108,-21.2167 2.3091,-32.5874 4.3626,-41.3956 l 1.0116,-4.3393 h 146.5296 146.5297 v 26.1 c 0,20.6529 -0.1561,26.0327 -0.7481,25.7776 -7.4051,-3.1907 -9.9281,-4.1466 -14.2506,-5.3989 -5.5686,-1.6134 -16.5357,-3.564 -26.0004,-4.6246 -5.4926,-0.6155 -75.6269,-1.7947 -76.3121,-1.2831 -0.8506,0.6351 -1.2088,22.2768 -1.8989,114.7467 -0.8247,110.4905 -0.8055,129.5666 0.1457,144.8436 1.4297,22.961 5.0085,42.339 10.0999,54.6862 l 1.6367,3.9694 H 1216.5334 1181.14 Z M 985.51754,1233.117 c -0.19709,-2.222 -0.51251,-27.1357 -0.70087,-55.3637 l -0.34254,-51.3237 h 33.62047 33.6205 l -3.1421,5.8356 c -5.0844,9.4429 -12.3402,21.6478 -28.377,47.7326 -16.6472,27.0776 -23.17052,38.0815 -29.36132,49.5281 -2.26998,4.1971 -4.3143,7.6312 -4.543,7.6312 -0.22864,0 -0.57698,-1.818 -0.77414,-4.0401 z m 519.77766,-284.0122 -2.6934,-0.737 0.044,-10.1749 c 0.063,-14.7904 1.3378,-20.7711 11.6057,-54.466 6.759,-22.1801 8.1055,-30.6287 7.5415,-47.3207 -0.5732,-16.9631 0.4481,-22.5358 8.2616,-45.0822 5.7984,-16.7314 8.4768,-28.6938 8.052,-35.9619 l -0.1913,-3.2727 -5.3868,-2.8448 c -7.5053,-3.9635 -17.7792,-7.1178 -35.8034,-10.9922 -17.7354,-3.8123 -22.7476,-5.336 -34.1121,-10.3704 -12.1467,-5.381 -17.3071,-7.0288 -30.2702,-9.6661 -20.0483,-4.0788 -26.7774,-6.3043 -66.504,-21.9951 -37.2609,-14.717 -49.2351,-20.6428 -81.5895,-40.3778 -11.2773,-6.8787 -11.8422,-7.3109 -11.4773,-8.7823 0.6225,-2.5098 2.6859,-4.2583 7.848,-6.6503 5.5756,-2.5837 7.2466,-4.3216 6.0016,-6.2414 -1.5283,-2.3564 -6.702,-4.5058 -15.8731,-6.5944 -9.2019,-2.0956 -12.6446,-3.3703 -12.6446,-4.6818 0,-1.0945 2.7994,-5.1371 5.6166,-8.1109 4.8055,-5.0728 12.2644,-9.3225 26.4046,-15.0441 9.5499,-3.8643 15.2978,-6.7195 29.873,-14.839 18.8777,-10.5163 25.6113,-13.1841 55.5766,-22.0191 9.5733,-2.8226 21.0625,-6.4301 25.5316,-8.0167 14.7455,-5.2349 16.9174,-5.7653 39.2491,-9.5857 31.0856,-5.3179 34.95,-7.074 55.4184,-25.184 4.8671,-4.3063 12.7039,-10.951 17.4153,-14.766 25.2376,-20.4362 44.2544,-38.2427 52.2756,-48.9486 8.3924,-11.2014 12.2603,-14.0391 19.1357,-14.0391 6.2018,0 11.1322,3.027 15.5554,9.5502 5.8332,8.6025 7.1329,19.3716 3.2587,27.0011 -1.3175,2.5944 -6.8453,7.7134 -8.3294,7.7134 -0.5814,0 -2.1361,-0.3807 -3.4548,-0.8459 -1.3188,-0.4653 -4.3839,-1.1471 -6.8114,-1.515 -10.5204,-1.5948 -19.9677,1.9315 -28.6486,10.693 -3.0906,3.1193 -6.1159,6.9092 -7.7077,9.6554 -2.4537,4.2336 -2.8967,4.6631 -6.9748,6.7624 -11.8857,6.1185 -20.604,13.1952 -41.8783,33.9927 -19.7141,19.2723 -23.0359,22.0583 -26.302,22.0593 -1.335,4e-4 -6.0634,0.4213 -10.5074,0.9354 -29.9678,3.4666 -57.5542,11.0706 -104.7684,28.8787 -24.5243,9.2499 -40.0582,14.7514 -50.2673,17.8026 -4.1054,1.227 -7.5885,2.3391 -7.7402,2.4714 -0.4574,0.3985 3.0412,3.0614 6.8596,5.221 7.3642,4.165 16.9034,6.6103 33.1017,8.4854 l 8.1967,0.9487 3.5911,3.4179 c 6.1691,5.8715 7.4765,6.6536 11.1293,6.6576 6.9449,0.01 14.8521,1.7578 29.3846,6.5041 16.4313,5.3664 17.317,5.5491 27.5165,5.6727 6.9508,0.084 7.6179,0.2002 11.3694,1.9776 2.192,1.0385 6.9054,3.763 10.4743,6.0545 13.635,8.7546 17.0835,9.8879 36.7732,12.0855 21.0549,2.35 25.8814,3.7084 41.4017,11.652 13.1622,6.7366 17.8824,8.4948 25.1343,9.362 9.3589,1.1191 14.2917,2.2384 20.9922,4.7635 7.5839,2.8579 12.1971,3.8215 16.1036,3.3641 2.6345,-0.3085 2.8651,-0.2274 3.2051,1.1271 0.2015,0.8027 0.069,3.1686 -0.2951,5.2574 -1.1072,6.3583 -0.9877,6.8249 3.2469,12.6778 2.1435,2.9627 5.8953,9.4268 8.3373,14.3646 7.0147,14.1842 10.6032,25.3173 18.6165,57.7579 3.1307,12.6738 6.5059,25.939 7.5005,29.4782 0.9947,3.5392 1.6257,6.7307 1.4023,7.0922 -0.66,1.0678 -7.4577,4.0581 -10.1395,4.4602 -5.5494,0.8322 -10.2564,-2.2562 -13.923,-9.1353 -1.0182,-1.9104 -3.2525,-7.781 -4.9651,-13.0458 -3.7575,-11.5513 -5.5332,-15.9346 -7.7757,-19.194 -1.6098,-2.3397 -1.7607,-3.1408 -2.934,-15.5753 -3.5544,-37.6681 -7.4232,-49.3756 -18.0971,-54.7638 -4.7586,-2.4021 -9.1689,-3.3069 -21.5206,-4.415 -15.1408,-1.3582 -21.153,-3.1885 -26.4196,-8.043 -1.9123,-1.7627 -3.1726,-2.4478 -4.5034,-2.4478 -6.8278,0 -24.1101,-4.8292 -46.3799,-12.96 -22.662,-8.274 -27.9347,-10.0094 -42.6144,-14.0256 -16.5542,-4.529 -22.0972,-6.3818 -38.0544,-12.7197 -14.9065,-5.9207 -49.5774,-20.5014 -58.3933,-24.5571 -9.2936,-4.2754 -12.5112,-5.2476 -18.5344,-5.6003 -6.8879,-0.4032 -7.5892,-0.074 -6.5088,3.0579 1.0754,3.1172 4.6309,6.6774 8.7761,8.7875 1.8697,0.9518 7.3911,3.0554 12.2698,4.6748 4.8787,1.6193 16.6812,5.7664 26.2277,9.2157 58.9271,21.2915 129.6225,43.5687 164.5949,51.8662 33.8715,8.0363 45.7223,11.539 49.1135,14.5166 5.3063,4.6589 6.6915,10.1788 7.4754,29.7885 0.9731,24.3431 2.9746,34.6274 15.3054,78.6437 11.0477,39.4361 14.6954,56.9055 16.6096,79.5453 l 0.291,3.4423 -5.5243,3.8517 c -8.2221,5.7324 -15.0439,8.0348 -18.023,6.0827 -1.8656,-1.2223 -4.0195,-4.9278 -6.6352,-11.4146 -1.1486,-2.8484 -3.0622,-6.6457 -4.2525,-8.4385 l -2.1643,-3.2596 0.7477,-4.0355 c 1.4445,-7.7963 1.4736,-11.8282 0.1127,-15.5698 -4.843,-13.3149 -6.3689,-27.5559 -6.9728,-65.0772 -0.2013,-12.5092 -0.6253,-26.2454 -0.9421,-30.5249 -0.5559,-7.511 -2.1639,-18.8369 -2.7615,-19.4521 -0.5532,-0.5694 -3.1932,3.3011 -3.8238,5.6063 -0.4854,1.7743 -0.4005,3.6997 0.3636,8.2505 0.8719,5.1919 0.9106,7.2654 0.3085,16.5392 -1.769,27.248 -5.3664,50.9178 -15.0365,98.9365 -5.8803,29.1993 -5.5972,26.7438 -4.5782,39.7151 0.1345,1.7124 -0.01,1.8062 -5.2486,3.5211 -4.652,1.5215 -6.4889,1.7902 -13.4668,1.9703 -5.181,0.1335 -9.0465,-0.056 -10.7735,-0.5285 z m -919.817,-210.371 c -3.94417,-5.5981 -6.10413,-13.2993 -6.10413,-21.7636 v -5.8607 l 4.93785,-2.3252 c 14.30945,-6.738 26.74282,-16.891 45.30709,-36.9975 26.0048,-28.165 41.87127,-42.7331 46.54182,-42.7331 0.81764,0 2.90818,0.4133 4.64558,0.9184 3.09487,0.8997 3.1801,0.9856 4.20244,4.236 1.41091,4.4856 1.01007,8.9829 -1.08244,12.145 -0.87654,1.3245 -4.08776,4.4538 -7.13605,6.9541 -7.42024,6.086 -12.75264,12.5535 -22.44279,27.2199 -13.61212,20.6024 -15.16769,22.8648 -19.34247,28.1307 -4.56455,5.7576 -10.48577,11.6244 -14.03342,13.9043 -1.53115,0.984 -3.6886,1.684 -5.98527,1.9421 -5.28984,0.5943 -8.88591,2.5394 -15.50472,8.3861 -5.59777,4.9449 -9.5587,7.4465 -11.83718,7.4763 -0.55363,0.01 -1.52846,-0.7275 -2.16631,-1.6328 z m -5.73771,-42.4954 c 1.67773,-13.8836 3.91478,-22.818 6.39149,-25.5272 0.72721,-0.7955 2.70731,-1.8871 4.40025,-2.4258 4.49595,-1.4307 9.46234,-4.6789 16.97259,-11.1009 10.24415,-8.7597 14.46568,-11.0532 21.6966,-11.7874 3.85996,-0.3919 4.14971,-0.9208 2.57271,-4.6951 -1.20597,-2.8862 -3.37683,-3.6387 -6.76497,-2.3448 -2.73018,1.0427 -4.08261,2.0334 -16.9671,12.4286 -9.9994,8.0675 -14.94886,10.656 -21.13481,11.053 l -4.44257,0.285 -0.64419,-2.32 c -0.35433,-1.276 -0.64569,-5.1113 -0.64755,-8.5229 l -0.006,-6.2028 1.94521,0.396 c 1.06986,0.2178 2.61855,0.4504 3.44153,0.5168 l 1.49632,0.1209 0.17052,-6.1304 c 0.1695,-6.0938 0.18087,-6.1357 1.91073,-7.0302 2.37765,-1.2295 8.72915,-2.0758 15.68636,-2.09 l 5.79716,-0.012 4.97633,-3.5972 c 10.27898,-7.4302 24.55115,-13.0998 48.96812,-19.4524 7.07758,-1.8414 13.37636,-3.4984 13.99727,-3.6822 0.9811,-0.2906 1.07364,-0.1102 0.70668,1.3778 -0.79197,3.2117 -5.63417,12.7556 -8.8257,17.3955 -4.273,6.2121 -13.23373,15.4418 -24.13332,24.8576 -4.93785,4.2656 -15.57667,14.4297 -23.64182,22.5867 -19.13741,19.3555 -25.83067,24.2406 -37.69515,27.5119 -6.56087,1.809 -6.63994,1.7885 -6.22941,-1.6086 z m 476.06101,-14.8191 c -7.9611,-1.0919 -15.7678,-3.0086 -24.8389,-6.0984 -12.2284,-4.1652 -29.6271,-13.1869 -29.6271,-15.3625 0,-1.6442 4.0307,-6.6844 6.6378,-8.3002 6.1295,-3.7989 11.9415,-3.5156 28.476,1.3879 12.9224,3.8324 19.9094,5.3572 26.2352,5.7256 10.3738,0.6039 15.7368,-1.055 26.7443,-8.2728 7.8794,-5.1667 11.5528,-7.0341 16.8877,-8.585 3.0021,-0.8727 3.3524,-1.1433 3.3524,-2.5901 0,-2.6354 2.3195,-10.2579 4.5157,-14.8399 1.1258,-2.3488 4.322,-7.6559 7.1026,-11.7935 6.4727,-9.6315 9.3653,-14.6501 11.3804,-19.7449 1.7079,-4.3179 3.3365,-11.6976 3.3365,-15.1185 0,-1.9256 0.1168,-2.0422 2.0459,-2.0422 2.8712,0 3.854,0.4929 4.8593,2.437 1.2542,2.4254 1.0857,5.4047 -0.5875,10.389 -1.2879,3.8367 -1.3968,4.8166 -0.9098,8.1857 1.981,13.7039 -1.0026,30.0935 -8.0231,44.072 -4.5137,8.9875 -15.0158,23.7459 -21.6444,30.4167 -4.0904,4.1165 -16.8767,8.7552 -28.6453,10.392 -6.1202,0.8513 -20.1802,0.7185 -27.2977,-0.2579 z m 8.6786,-35.9933 c -2.9627,-0.8002 -12.6588,-2.3792 -21.5469,-3.509 -22.8164,-2.8999 -26.5728,-3.9885 -36.2756,-10.5126 -8.18368,-5.5027 -10.18881,-6.1581 -26.52369,-8.6701 -11.48315,-1.7658 -16.92628,-3.184 -23.01252,-5.996 -6.03243,-2.7872 -16.03244,-9.5334 -25.21498,-17.0105 -13.24785,-10.7873 -21.20311,-16.484 -29.69765,-21.2661 -4.56987,-2.5727 -12.88754,-7.4974 -18.48377,-10.9439 -15.15386,-9.3325 -24.9302,-14.7496 -31.98743,-17.7243 -6.27573,-2.6453 -15.01441,-5.4288 -19.13191,-6.0941 -1.91601,-0.3096 -2.40901,-0.8039 -4.53785,-4.5501 -3.02963,-5.3316 -7.52798,-10.0258 -11.70707,-12.2169 -2.95223,-1.5478 -3.83009,-1.7108 -9.24718,-1.7166 -7.8024,-0.01 -11.39955,1.1743 -26.9233,8.8522 -6.58954,3.2591 -13.19297,6.4076 -14.67432,6.9966 -1.48136,0.5891 -6.8681,2.9617 -11.97054,5.2726 -5.10244,2.3108 -11.02786,4.6553 -13.16759,5.2099 -4.20124,1.0889 -11.0302,1.0054 -13.86231,-0.1695 l -1.59256,-0.6606 4.4066,-13.2716 c 5.19719,-15.6526 8.10543,-21.8371 12.60958,-26.8143 5.60808,-6.1971 15.01872,-9.8452 27.34688,-10.601 18.95732,-1.1623 48.18794,6.6703 74.13851,19.8659 9.97637,5.0729 15.02297,8.458 22.64395,15.1887 12.28967,10.854 15.93452,13.0339 25.59612,15.3084 12.7199,2.9946 17.42994,6.0761 45.99662,30.0934 9.8074,8.2455 19.20457,14.9179 25.59624,18.1745 3.17351,1.6169 4.56544,1.9287 10.41958,2.3335 8.46658,0.5854 13.76193,2.03 24.36662,6.6472 10.75937,4.6846 14.16137,5.6907 21.84537,6.46 11.9774,1.1993 15.1991,1.869 22.1464,4.6039 5.1011,2.0081 7.9977,2.7884 11.1888,3.0142 6.8165,0.4824 8.3202,-0.6948 17.886,-14.0015 0.9813,-1.365 5.3958,-6.3477 9.8101,-11.0728 4.4142,-4.725 9.7274,-10.8802 11.8071,-13.6783 9.0763,-12.2121 13.9489,-25.8374 13.9489,-39.0054 0,-7.2072 -0.7619,-11.8137 -4.2895,-25.9348 -3.7841,-15.1479 -4.6866,-20.2805 -4.6876,-26.6583 0,-5.8168 1.1,-10.7655 3.4569,-15.5379 1.5709,-3.1808 1.6268,-3.6351 1.6566,-13.4668 0.047,-15.4453 2.1707,-23.8273 11.8468,-46.7562 2.7619,-6.5447 5.7381,-13.886 6.6136,-16.3141 l 1.592,-4.4146 -3.3272,0.2759 c -4.4182,0.3664 -7.2981,2.4393 -12.1805,8.767 -4.3762,5.6716 -6.9612,7.6187 -11.1756,8.418 -2.3179,0.4396 -3.2668,0.3734 -4.3096,-0.3007 -2.1932,-1.4179 -2.3057,-3.5285 -0.4808,-9.0186 2.2159,-6.666 1.518,-10.1141 -1.2809,-6.3285 -1.7801,2.4078 -10.3688,9.5229 -16.9517,14.0434 -3.1273,2.1475 -12.5541,7.8821 -20.9485,12.7435 -20.8861,12.0958 -24.8233,14.8326 -33.5175,23.2983 -7.1374,6.9497 -7.7336,7.3852 -12.9581,9.4649 -7.32836,2.9172 -14.72998,4.7106 -30.13582,7.302 -19.26198,3.24 -22.30255,4.1146 -38.60499,11.1044 -19.37569,8.3076 -25.11413,9.7682 -38.30572,9.7503 -10.7268,-0.015 -29.08727,-1.7186 -29.74984,-2.761 -0.25162,-0.3958 -0.46177,-1.2583 -0.46709,-1.9167 -0.0144,-1.7842 -3.12479,-8.0286 -6.46679,-12.9824 -7.12187,-10.557 -10.20398,-19.6096 -15.1301,-44.44 -4.84286,-24.411 -5.71031,-27.4316 -10.69424,-37.241 -4.84047,-9.527 -5.88962,-13.7046 -7.4917,-29.8302 -1.60381,-16.1432 -3.34433,-23.4705 -6.88653,-28.9905 -0.97123,-1.5136 -4.61482,-5.4012 -8.09687,-8.6391 -6.83602,-6.357 -8.15122,-8.3181 -9.28388,-13.8437 -1.05699,-5.1567 -1.96233,-6.6449 -7.10014,-11.6713 -4.50799,-4.4103 -4.74548,-4.7975 -13.55813,-22.1035 -13.94759,-27.3898 -19.91138,-36.8214 -29.07123,-45.9757 l -4.33872,-4.336 -1.83652,1.0725 c -3.07512,1.796 -5.54105,5.6306 -6.59182,10.2505 -0.52461,2.3067 -1.22548,8.9833 -1.55737,14.8369 -0.65868,11.6152 -1.8291,18.8811 -3.60115,22.3545 -1.06365,2.085 -1.08412,2.5356 -0.30118,6.6347 2.1292,11.1481 1.73591,24.6782 -1.21531,41.8057 -0.82244,4.7732 -3.89689,18.6441 -6.83207,30.8241 -6.49994,26.9727 -7.65091,33.1906 -8.41983,45.4881 -1.10488,17.6696 -2.61652,23.9285 -6.78419,28.0899 -2.86945,2.8652 -5.87819,3.9313 -11.09483,3.9313 h -3.70506 l -1.28803,-2.843 c -1.75165,-3.8664 -2.09024,-13.558 -0.79981,-22.8937 2.96139,-21.4243 4.64546,-38.258 4.93994,-49.3785 l 0.31692,-11.9705 2.89693,-8.9779 c 4.95383,-15.3525 8.18432,-30.1702 9.51568,-43.6468 0.79724,-8.0695 0.84159,-17.7022 0.0815,-17.7022 -0.31046,0 -2.16703,1.4837 -4.12571,3.2971 -6.51664,6.0333 -9.79052,14.2356 -15.02709,37.649 -3.49606,15.6311 -7.62182,31.0206 -10.30221,38.4283 -2.99928,8.2889 -9.68063,21.2009 -12.71935,24.5807 -3.24869,3.6133 -6.70015,5.2235 -10.00115,4.6658 -2.02033,-0.3414 -2.37681,-0.6804 -3.34056,-3.1778 -1.45663,-3.7748 -1.32023,-9.6182 0.32375,-13.8685 0.70027,-1.8105 3.17297,-6.5239 5.49483,-10.4742 9.40927,-16.0082 9.84368,-17.6443 9.37581,-35.3131 -0.6123,-23.1218 0.41376,-26.2387 14.4813,-43.9917 6.64131,-8.3813 9.61719,-13.992 10.07003,-18.9859 0.23097,-2.5468 0.1057,-3.7301 -0.42992,-4.0611 -0.41568,-0.2569 -2.61287,-0.6 -4.8826,-0.7624 -3.82387,-0.2736 -4.44406,-0.1384 -8.44743,1.8413 -3.01245,1.4897 -6.1856,3.8643 -10.48045,7.843 -7.90151,7.3199 -10.59512,9.4875 -13.78958,11.0971 -4.18945,2.1109 -11.12075,3.5934 -21.34892,4.5663 -18.81535,1.7895 -22.565,3.2769 -36.8094,14.6013 -7.1859,5.7129 -10.35959,7.5668 -14.97902,8.7503 -4.37458,1.1207 -8.82055,0.7033 -11.03121,-1.0356 -3.04962,-2.3988 -3.41801,-9.0696 -0.90881,-16.4576 l 1.24847,-3.6759 3.40849,-0.4173 c 10.225,-1.2517 22.3603,-4.7341 31.95845,-9.171 7.29772,-3.3734 14.87735,-7.9238 30.10567,-18.0736 25.86875,-17.2418 37.0053,-22.6119 54.11725,-26.0954 8.8081,-1.7931 9.26406,-2.4301 5.72012,-7.9929 -3.53131,-5.543 -2.68745,-7.5678 3.30722,-7.9355 5.25692,-0.3224 7.96777,-1.7715 12.56906,-6.7186 12.09426,-13.0033 12.94578,-13.7039 19.93281,-16.3993 7.83208,-3.0215 19.15531,-6.2832 26.44693,-7.6182 4.33542,-0.7938 5.96318,-0.8545 8.37937,-0.3125 7.9901,1.7924 16.42005,9.4941 21.52453,19.6652 5.58928,11.137 5.28176,22.6845 -0.78611,29.5222 -1.53181,1.7261 -2.57223,2.4296 -3.22361,2.1797 -0.89587,-0.3438 -3.41549,-5.1546 -8.38081,-16.0019 -3.83979,-8.3885 -6.80776,-10.4229 -12.70481,-8.7086 -2.5359,0.7373 -3.49797,1.3581 -4.19603,2.708 -1.87932,3.6342 -1.14534,4.7438 5.07958,7.6787 4.46584,2.1056 5.14392,3.025 7.81837,10.6024 1.01744,2.8827 2.54781,6.2958 3.40077,7.5847 1.51901,2.2954 6.21415,5.6672 14.00996,10.0611 7.65265,4.3133 13.4811,12.4864 21.3412,29.9264 8.44677,18.7416 10.294,22.7565 17.62416,38.3057 14.38422,30.5129 25.4034,56.9262 32.10576,76.9588 3.63959,10.8782 4.89212,16.0675 8.80068,36.4621 4.19035,21.8644 8.2832,32.6087 15.26501,40.0723 5.21874,5.5789 9.6795,7.6832 16.96208,8.0017 8.93235,0.3907 13.33607,-1.1298 30.85807,-10.654 10.82262,-5.8828 14.51559,-7.1191 31.2221,-10.4528 15.59007,-3.111 20.4297,-4.6239 27.07257,-8.4633 7.15537,-4.1356 29.42437,-19.4272 33.64247,-23.1015 7.8187,-6.8107 12.9366,-14.2966 14.8829,-21.7689 1.6693,-6.409 1.0229,-16.7301 -1.5449,-24.6684 -0.8672,-2.6808 -2.9793,-3.6118 -10.4068,-4.5873 -7.5161,-0.9871 -9.946,-2.1714 -10.7097,-5.2195 -0.6064,-2.4201 0.6571,-5.5453 5.0449,-12.4779 2.0803,-3.2869 2.4224,-4.2655 2.2051,-6.3086 -0.8627,-8.1112 -8.4788,-14.308 -22.0008,-17.9005 -3.1156,-0.8278 -9.97412,-2.454 -15.24115,-3.6138 -12.88389,-2.8371 -18.11179,-4.667 -23.35806,-8.1759 -7.59458,-5.0796 -10.9944,-9.6652 -19.41968,-26.193 -9.38778,-18.416 -13.77743,-22.0577 -28.56631,-23.699 -12.27573,-1.3624 -15.02662,-2.8049 -23.18736,-12.1589 -7.24654,-8.3062 -9.41955,-9.7516 -16.77569,-11.1591 -6.49976,-1.2436 -8.15325,-2.2328 -15.53327,-9.2929 -5.09586,-4.875 -9.54117,-8.2903 -19.2002,-14.7513 -14.29881,-9.5645 -26.53952,-17.1017 -35.83794,-22.0671 l -6.38945,-3.4121 0.38156,-2.0339 c 0.36713,-1.9571 0.13766,-2.2744 -6.07571,-8.398 -7.21099,-7.1069 -12.81572,-11.4134 -26.9765,-20.7278 -5.31229,-3.4942 -11.23621,-7.638 -13.16436,-9.2084 l -3.50564,-2.8555 -4.2982,0.1282 c -5.81529,0.1734 -6.93411,-0.3359 -7.79372,-3.5477 -1.76984,-6.6126 -5.07802,-8.7578 -17.35446,-11.2534 -4.62841,-0.9408 -9.66292,-2.2625 -11.18785,-2.9371 -1.54019,-0.6813 -5.5754,-3.7876 -9.07816,-6.9883 -7.13587,-6.5206 -9.69146,-7.8792 -18.40578,-9.7843 -8.91051,-1.9481 -11.10854,-3.3486 -16.8748,-10.7527 -3.47786,-4.4657 -6.55848,-6.398 -11.07718,-6.9483 -8.75394,-1.0659 -15.70253,-3.568 -34.7467,-12.5117 -7.40468,-3.4775 -17.90075,-7.847 -23.3246,-9.7101 -16.63149,-5.7129 -22.48706,-9.4498 -24.23637,-15.4673 -0.79623,-2.7387 -0.79293,-3.4571 0.0299,-6.6159 0.79694,-3.06 2.92177,-7.5028 3.58817,-7.5028 0.12012,0 1.90068,0.9859 3.95686,2.191 10.92821,6.4048 25.43445,12.221 44.79027,17.9583 51.21092,15.1797 53.40955,16.1575 71.24081,31.6847 10.67987,9.2998 17.16437,14.0611 23.3219,17.1241 4.97741,2.476 5.20461,2.5266 12.86833,2.8701 9.81482,0.4398 10.3681,0.7142 20.12295,9.9814 5.57025,5.2918 9.56991,8.4388 15.82176,12.4491 4.60177,2.9518 10.65629,7.0075 13.45441,9.0126 7.69376,5.5134 11.02474,7.5382 24.65272,14.9855 21.24124,11.6078 23.32483,13.3721 33.31634,28.2116 9.24994,13.7382 12.79328,16.275 24.42726,17.4887 3.2375,0.3377 6.77132,0.8727 7.85286,1.1887 5.04013,1.473 9.41925,5.788 16.20924,15.972 2.65704,3.9852 5.90375,8.215 7.21501,9.3996 2.38369,2.1535 2.38471,2.1538 8.05665,2.1538 8.44198,0 14.23297,1.7132 21.31785,6.3064 5.47478,3.5495 9.70284,7.5853 19.46852,18.5837 4.67827,5.2688 9.85744,10.8194 11.50926,12.3346 3.58727,3.2907 4.18657,5.5745 2.88825,11.0062 -0.4714,1.9724 -0.73745,3.7059 -0.59117,3.8522 0.14628,0.1463 1.0014,0.012 1.90027,-0.2979 1.18035,-0.4073 2.2161,-1.6916 3.72912,-4.6244 1.15216,-2.2332 2.49885,-4.3149 2.99263,-4.6258 1.54594,-0.9735 2.77453,-0.6407 3.49821,0.9477 0.92748,2.0355 4.76488,3.6282 9.96865,4.1375 7.98979,0.7818 8.76046,1.1519 14.19281,6.816 2.72804,2.8444 7.63954,9.0266 10.91444,13.7382 3.2748,4.7116 6.8128,9.5597 7.8621,10.7735 l 1.9079,2.2069 6.2032,0.049 c 9.5879,0.076 13.4544,1.8178 25.6512,11.5553 10.4193,8.3184 9.1524,7.8347 21.1041,8.0573 11.5281,0.2148 16.0215,0.9788 31.2711,5.3167 l 8.9779,2.5538 3.2919,6.7213 c 1.8106,3.6967 3.8668,7.294 4.5693,7.9941 l 1.2773,1.2729 3.8101,-1.8107 c 5.867,-2.7882 11.8429,-3.7616 25.4171,-4.1404 l 12.0306,-0.3357 3.2676,2.4671 c 10.6286,8.0247 26.0578,10.6242 54.2172,9.1344 22.5544,-1.1932 42.3363,-1.4927 48.7371,-0.7378 10.6799,1.2596 18.4246,3.8955 24.0376,8.1813 l 2.7472,2.0977 2.0313,-4.3494 c 3.1563,-6.7584 3.6119,-7.0274 12.192,-7.1984 l 7.2047,-0.1436 6.2172,-3.1292 c 3.7019,-1.8633 10.3285,-6.1477 16.3795,-10.5901 19.4271,-14.2625 28.4137,-17.4477 44.0762,-15.6224 9.892,1.1529 15.987,1.1508 24.886,-0.01 21.314,-2.7763 42.9326,-10.3905 61.6588,-21.7168 4.6838,-2.8329 6.6541,-3.6984 8.4191,-3.6984 4.137,0 9.3216,-1.2668 13.8961,-3.3954 2.4689,-1.1489 7.7187,-3.2984 11.6661,-4.7767 10.4976,-3.9315 14.9265,-6.4513 19.8186,-11.2763 3.3914,-3.3448 4.8112,-5.344 7.0159,-9.8794 3.618,-7.4425 4.7384,-12.9845 4.7192,-23.3426 -0.022,-11.5949 -2.1724,-23.4781 -6.8452,-37.8175 l -1.8889,-5.7964 -3.1256,-1.1961 c -6.6317,-2.5378 -11.4655,-6.6285 -20.734,-17.5468 l -5.5005,-6.4796 -5.4058,0.3582 c -5.4757,0.3628 -7.1601,0.1709 -24.7401,-2.8187 -12.7633,-2.1704 -17.3554,-1.0065 -32.139,8.1459 -3.6211,2.2417 -10.0852,6.1345 -14.3647,8.6506 -20.6874,12.1629 -26.2773,17.3918 -30.8221,28.8313 -4.1245,10.3814 -7.2552,14.9852 -11.3416,16.6778 -1.5169,0.6283 -1.6983,1.0323 -1.9734,4.3927 -0.7748,9.4685 -4.3236,13.8448 -10.3151,12.7208 -2.6333,-0.494 -5.6166,-2.9888 -6.7136,-5.6144 -1.2087,-2.8929 -1.038,-11.5646 0.3971,-20.1643 0.6592,-3.9503 1.3769,-9.4073 1.595,-12.1267 l 0.3964,-4.9445 -2.1644,0.9044 c -4.4798,1.8718 -14.2721,0.7432 -21.4326,-2.4702 l -3.4211,-1.5353 -2.5903,1.7951 c -1.4247,0.9873 -5.8224,4.6665 -9.7727,8.1758 -7.712,6.8514 -12.3421,9.6072 -17.5147,10.4249 -6.381,1.0087 -11.3069,-0.5702 -24.2391,-7.7694 -11.5639,-6.4375 -17.7511,-8.003 -24.9784,-6.3202 -2.1378,0.4978 -3.9109,0.8586 -3.9401,0.8018 -1.7373,-3.373 -6.0851,-9.4331 -12.527,-17.4606 -4.4909,-5.5962 -9.2727,-12.0259 -10.6264,-14.2882 -2.3973,-4.0064 -2.4355,-4.154 -1.4701,-5.686 2.4207,-3.8417 2.4914,-4.1723 1.3866,-6.489 -0.5747,-1.2051 -3.224,-5.5555 -5.8875,-9.6676 -2.6634,-4.1121 -5.2998,-8.7076 -5.8587,-10.2124 -0.5588,-1.5048 -2.0202,-7.5841 -3.2474,-13.5095 -5.8928,-28.4516 -8.0378,-36.6511 -12.2773,-46.932 -2.1604,-5.2389 -4.4878,-8.7395 -11.2822,-16.969 -9.3532,-11.3288 -14.1857,-21.5989 -24.1244,-51.2703 l -6.0997,-18.21 1.3957,-2.6308 c 0.7676,-1.4469 3.0614,-4.0932 5.0973,-5.8807 3.6327,-3.1893 3.7714,-3.25 7.4251,-3.25 3.3396,0 3.9805,0.2086 6.2182,2.0242 4.4807,3.6353 9.5011,5.6808 22.2462,9.0642 15.954,4.2351 21.0756,7.3437 24.6266,14.9476 2.2017,4.7143 1.9948,5.3639 -2.0715,6.5049 -6.8605,1.925 -13.2191,1.1973 -25.5302,-2.9217 -8.3573,-2.7961 -12.0135,-3.2741 -13.187,-1.7239 -0.4718,0.6233 -0.8664,2.1299 -0.8769,3.348 -0.017,1.9323 0.3427,2.5047 2.8182,4.4889 6.8268,5.4724 6.4467,4.8322 22.4938,37.8867 2.7968,5.7608 6.2737,12.2273 7.7265,14.37 1.8803,2.773 2.8566,4.9886 3.3876,7.6876 0.4103,2.0855 2.0997,7.4698 3.7542,11.9652 3.0452,8.2736 4.6902,15.0386 4.6902,19.2882 0,1.6683 0.6803,3.4424 2.3932,6.2409 3.1445,5.1375 7.1371,13.1873 12.9142,26.0374 13.5021,30.0329 22.1565,41.7543 36.2376,49.0801 l 4.667,2.4281 6.4589,-3.2343 c 3.5525,-1.7789 10.2297,-4.7393 14.8384,-6.5787 25.7811,-10.2899 41.5997,-9.499 48.5902,2.4294 l 1.56,2.6621 1.4024,-1.6967 c 0.7713,-0.9333 2.9928,-3.9862 4.9367,-6.7843 7.7391,-11.1399 11.8809,-14.3649 22.7942,-17.748 8.7431,-2.7103 14.7387,-5.5411 17.2488,-8.1438 2.2412,-2.324 2.13,-3.1742 -0.6648,-5.0819 -4.2707,-2.9152 -8.3409,-1.4379 -18.6576,6.7718 -7.9098,6.2943 -11.6508,8.1842 -15.6891,7.9258 l -2.8652,-0.1834 0.1649,-2.5826 c 0.2432,-3.8099 2.1064,-7.2274 7.1469,-13.1088 7.9075,-9.2268 10.3436,-13.8787 10.3458,-19.7563 v -2.858 l -3.6922,0.2078 c -5.4663,0.3077 -9.9088,-0.7702 -20.5503,-4.9865 -10.2814,-4.0736 -16.0974,-5.361 -21.4023,-4.7375 l -3.1487,0.37 -0.8241,-2.3099 c -2.4119,-6.7608 -7.8002,-11.9555 -18.9159,-18.2359 -12.9017,-7.2897 -14.9998,-8.6594 -18.9119,-12.3465 -5.0821,-4.7897 -7.1068,-9.0289 -7.575,-15.8602 l -0.3296,-4.808 3.3822,0.4226 c 5.0874,0.6356 13.1439,2.9445 19.8432,5.6869 7.9316,3.2468 16.3375,8.0018 32.6197,18.4522 16.9116,10.8544 14.9634,9.6506 21.4046,13.2271 9.5559,5.3061 15.8315,7.6573 23.3576,8.7513 9.3071,1.3528 11.9949,2.2668 16.3178,5.5489 2.0551,1.5603 5.2457,3.9809 7.0903,5.3792 4.1572,3.1516 7.3595,4.099 16.5546,4.8981 8.7533,0.7606 11.418,1.5197 17.4511,4.9711 7.8413,4.4859 9.3121,4.7175 19.5528,3.0788 7.7125,-1.2341 12.6703,-0.6863 27.9029,3.083 13.8843,3.4357 23.328,5.0685 29.3147,5.0685 4.6182,0 4.6622,0.015 5.4064,1.8114 1.2153,2.934 4.1618,6.2061 9.3168,10.3465 2.6589,2.1356 5.5513,4.7348 6.4273,5.776 0.8761,1.0412 3.7288,6.2528 6.3393,11.5813 3.1926,6.5169 6.7121,12.4926 10.7515,18.2552 9.0615,12.9269 8.7338,11.6526 8.8016,34.2278 0.036,12.1386 0.305,19.8624 0.754,21.6861 0.3835,1.558 1.7952,5.194 3.1371,8.0802 1.3508,2.9054 2.5839,6.589 2.7628,8.2531 0.6374,5.9305 -3.0651,15.3056 -9.3347,23.6369 -3.9957,5.3095 -12.5944,13.4673 -17.9047,16.9865 -6.4717,4.289 -9.3132,5.1751 -18.6634,5.8204 -12.924,0.8918 -16.4354,2.3246 -29.0286,11.8452 -3.9503,2.9865 -8.7173,6.249 -10.5933,7.25 -4.1554,2.2171 -6.8512,5.2689 -9.9988,11.319 -4.1209,7.921 -5.2811,13.7305 -6.9404,34.7543 -1.1136,14.1097 -1.8502,18.0693 -5.6679,30.467 -3.9304,12.7637 -4.6238,16.4121 -5.7147,30.0672 -1.4717,18.4231 -2.6979,24.6057 -5.996,30.2335 -1.7713,3.0224 -3.8946,4.6351 -7.3159,5.5563 -3.7533,1.0107 -6.6277,0.033 -9.6993,-3.2994 -5.057,-5.4862 -7.8258,-14.7578 -8.2633,-27.6707 -0.3998,-11.8006 0.8285,-18.8552 6.4965,-37.3115 1.3499,-4.3955 3.6473,-12.5233 5.1053,-18.0618 3.2499,-12.345 6.4603,-21.2915 12.817,-35.7173 6.3872,-14.4948 7.8006,-18.0115 7.4604,-18.5619 -0.1547,-0.2504 -1.2414,-0.6353 -2.4149,-0.8555 -3.2459,-0.6089 -8.0812,1.0948 -13.1134,4.6205 -9.6143,6.736 -25.9356,19.6097 -29.1409,22.9853 -6.4024,6.7427 -8.7173,13.4957 -11.8995,34.7123 -3.5278,23.5217 -4.4699,26.587 -11.2751,36.6877 -6.8627,10.186 -7.3622,11.4223 -7.3484,18.1852 0.01,4.1796 0.5526,7.9051 2.2445,15.3702 2.662,11.7455 2.9839,18.7395 1.0852,23.5753 l -1.1576,2.9482 -6.2823,1.953 c -6.7013,2.0832 -10.5462,2.4892 -12.1018,1.278 -1.9,-1.4792 -4.7254,-6.8302 -6.451,-12.2173 -6.0406,-18.8575 -2.3474,-43.2064 10.7448,-70.8392 2.6173,-5.5241 7.0849,-15.9289 9.9279,-23.1218 6.8987,-17.4532 8.5225,-20.4517 13.3514,-24.6547 7.6794,-6.6839 10.7625,-9.7714 11.4752,-11.4921 1.1365,-2.7438 0.4627,-3.5658 -2.923,-3.5658 -2.4785,0 -4.2275,0.661 -10.9419,4.135 -8.7485,4.5264 -11.6938,5.5273 -16.39,5.5695 -3.0404,0.027 -3.1375,0.083 -4.3154,2.4937 -0.6629,1.3561 -5.2887,9.3338 -10.2797,17.7282 -14.0876,23.6937 -21.1192,38.3056 -23.9063,49.6777 -1.7442,7.1168 -2.3568,13.062 -3.0836,29.9263 -0.969,22.4842 -2.2981,30.7104 -6.1205,37.8819 -3.2712,6.1374 -10.1332,11.1429 -16.2918,11.8841 -1.4738,0.1774 -2.0664,-0.1987 -3.7175,-2.3591 -4.2854,-5.6077 -4.764,-12.6025 -2.0238,-29.5791 0.9716,-6.0196 2.1926,-16.1968 2.7133,-22.616 1.8584,-22.909 3.1445,-27.6243 11.1006,-40.6998 4.0614,-6.6749 5.368,-10.2294 5.368,-14.6041 0,-3.9714 0.1061,-4.1165 11.4428,-15.6361 6.7408,-6.8497 9.2004,-9.7735 10.3213,-12.2698 1.6403,-3.653 2.6046,-8.3648 1.712,-8.3648 -1.0592,0 -13.5571,11.1313 -19.885,17.7106 -27.0936,28.17 -47.1361,64.0988 -53.8156,96.4711 -0.6976,3.3812 -1.8211,10.9226 -2.4966,16.7588 -1.8808,16.2492 -3.1429,20.6025 -7.0489,24.3128 -3.1083,2.9527 -9.026,2.8128 -16.4696,-0.3894 l -2.936,-1.263 0.3447,-7.8202 c 0.2258,-5.1242 1.0929,-11.844 2.515,-19.4915 3.107,-16.7083 3.8692,-23.1253 3.8824,-32.6857 l 0.011,-8.4454 4.9379,-7.5208 c 2.7158,-4.1364 6.6885,-10.391 8.8282,-13.899 6.3401,-10.3942 10.8559,-15.9106 19.1111,-23.3456 4.2218,-3.8024 8.9297,-8.5091 10.462,-10.4594 2.7476,-3.4972 5.8631,-9.5152 6.5881,-12.7257 0.4481,-1.9838 -0.311,-2.0964 -4.9158,-0.7289 -4.2409,1.2594 -8.9482,5.7595 -14.4776,13.8406 -2.4426,3.5695 -9.6261,12.7487 -15.9634,20.3982 -19.6314,23.6958 -27.2879,34.6133 -34.3204,48.9372 -8.6035,17.524 -12.1795,32.1817 -12.9777,53.1955 l -0.3837,10.1015 -2.6112,1.155 c -3.6059,1.5951 -9.9407,2.8595 -14.3887,2.8719 -3.5036,0.01 -3.7785,-0.092 -4.6164,-1.7124 -1.6215,-3.1356 -3.3265,-10.4529 -3.9322,-16.8751 -1.0506,-11.1408 1.1197,-28.5524 5.154,-41.3489 1.826,-5.7919 2.5531,-6.9405 8.4266,-13.3109 5.6693,-6.1491 6.7719,-8.4532 6.7791,-14.1666 0.01,-3.8397 0.2508,-4.8771 1.7946,-7.5688 2.6899,-4.6904 8.1659,-10.2128 19.5277,-19.6934 13.1098,-10.9392 17.5541,-16.5108 19.3361,-24.2404 0.6334,-2.7476 0.867,-10.7048 0.3143,-10.7048 -0.6268,0 -10.2247,5.6143 -14.3857,8.4149 -22.3401,15.0363 -41.1511,37.934 -53.5262,65.1545 -5.0234,11.0496 -6.1124,14.4106 -10.7559,33.1959 -2.3106,9.3478 -5.1698,19.7868 -6.3537,23.1977 -5.6781,16.3596 -12.2312,23.4645 -20.7152,22.4597 -4.2179,-0.4995 -9.3639,-3.0806 -10.1648,-5.0985 -0.3456,-0.8706 -0.7589,-4.6803 -0.9183,-8.466 -0.5069,-12.0343 1.8813,-20.5803 11.7805,-42.1559 7.983,-17.3992 9.1734,-21.7162 8.3075,-30.1262 -0.7094,-6.89 0,-9.6987 3.8826,-15.3243 7.2426,-10.5002 22.2047,-26.7963 26.7156,-29.0976 1.3805,-0.7043 5.2068,-2.2192 8.5029,-3.3665 10.3232,-3.5932 14.2583,-7.1339 14.2583,-12.8293 0,-1.4303 -0.4278,-1.9626 -2.3753,-2.9562 -8.2699,-4.219 -20.5038,-3.9378 -37.8757,0.8707 -4.1971,1.1618 -10.9306,3.0234 -14.9631,4.137 -4.0326,1.1136 -9.8812,2.462 -12.9968,2.9966 -5.1264,0.8795 -5.8857,1.1849 -7.9888,3.2124 -7.1011,6.8462 -12.8797,19.3524 -15.3942,33.3167 -3.1194,17.3241 -2.9295,33.4057 0.9197,77.8558 0.7981,9.2173 1.6264,19.9908 1.8406,23.941 0.2361,4.3546 0.7083,7.6928 1.1992,8.4789 0.4455,0.7131 2.3639,1.878 4.2632,2.5886 3.8696,1.4478 4.9641,2.1828 4.9641,3.3332 0,0.433 -1.7586,3.3811 -3.908,6.5514 -4.7443,6.9975 -8.815,15.3068 -15.2451,31.1198 -8.3936,20.6418 -12.8974,29.1541 -19.6714,37.1795 -6.1197,7.2503 -15.4959,13.2224 -24.2962,15.4754 -4.433,1.1349 -4.7905,1.1139 -11.3959,-0.6703 z M 688.36264,618.3822 c 3.72397,-6.625 9.13818,-13.4693 16.70207,-21.1138 11.74202,-11.8672 23.24906,-20.3577 49.37847,-36.4342 17.14702,-10.5499 28.20534,-17.8767 36.34818,-24.0828 l 7.10745,-5.4169 2.93134,0.3472 c 4.08369,0.4836 8.66093,2.8008 12.77293,6.466 4.09446,3.6497 4.12229,4.0884 0.70165,11.0674 -1.54234,3.1469 -3.23695,5.3485 -6.50928,8.457 -5.28338,5.0186 -8.36495,6.8808 -23.5406,14.2251 -6.36109,3.0785 -13.42825,6.8356 -15.70481,8.349 -3.90006,2.5928 -10.21644,8.7453 -10.21644,9.9515 0,0.3027 -1.57322,0.5503 -3.49605,0.5503 -5.64656,0 -8.34269,1.161 -14.39637,6.1995 -16.07116,13.3761 -33.66618,21.7976 -51.48002,24.6399 l -2.63669,0.4207 z M 883.42573,512.9063 c -9.921,-1.2269 -20.85387,-4.0843 -26.45369,-6.9139 l -2.81188,-1.4209 1.15623,-2.6138 c 0.63594,-1.4376 1.58903,-5.4129 2.11807,-8.8339 0.63127,-4.0824 1.29102,-6.4773 1.91965,-6.9684 1.94959,-1.5228 3.72021,-0.8477 7.21082,2.7492 l 3.39394,3.4974 5.24226,0.7155 c 8.2258,1.1228 21.7625,0.8925 29.96489,-0.5098 8.85497,-1.5138 13.81873,-2.7819 28.16291,-7.1945 6.29519,-1.9365 13.68071,-4.0858 16.41221,-4.7761 5.69396,-1.439 16.87911,-3.2109 17.34267,-2.7473 0.62684,0.6268 -2.36358,8.3708 -4.44113,11.5008 -7.05854,10.6342 -22.88803,18.6559 -44.20313,22.4005 -8.19155,1.439 -27.43814,2.052 -35.01382,1.1152 z M 1589.6836,376.5487 c -3.3859,-1.1068 -5.4814,-2.666 -9.0786,-6.7552 -5.2544,-5.9731 -7.6154,-8.1338 -10.2046,-9.3388 -1.2259,-0.5705 -2.2359,-1.3827 -2.2444,-1.8047 -0.041,-2.0442 2.1717,-5.4152 6.5683,-10.0061 6.8008,-7.1013 7.6188,-9.6117 5.6279,-17.2709 -1.1915,-4.5837 -0.8308,-8.1144 1.132,-11.0804 0.8348,-1.2614 4.3013,-4.6963 7.7035,-7.633 7.6707,-6.6214 9.1285,-9.0497 8.5801,-14.292 -0.4828,-4.6165 -0.9637,-6.6187 -4.8872,-20.3499 -1.7872,-6.2546 -4.3019,-16.0854 -5.5882,-21.8462 -1.2862,-5.7609 -4.3534,-18.9686 -6.8159,-29.3506 -13.2802,-55.9894 -17.1976,-84.3894 -16.3022,-118.1863 0.2093,-7.9006 0.5537,-15.0024 0.7653,-15.7818 0.373,-1.3739 0.5327,-1.4084 5.2344,-1.1321 3.1054,0.1825 7.5061,1.0689 12.2362,2.4646 10.9215,3.2225 14.3023,2.906 20.7207,-1.94 4.1965,-3.1684 6.5147,-4.2707 9.7817,-4.6515 7.5657,-0.8819 17.5208,6.6518 37.0056,28.0044 9.4435,10.3487 15.8186,15.5248 35.3676,28.7154 8.3349,5.6239 17.3708,12.0035 20.0796,14.177 2.7089,2.1735 15.1601,14.0767 27.6693,26.4516 12.5092,12.3749 27.5921,26.9222 33.5175,32.3272 5.9254,5.4051 19.5428,18.5239 30.2609,29.153 l 19.4873,19.3255 5.3515,-0.01 c 8.7383,-0.012 13.3466,-1.7745 25.2432,-9.6566 7.924,-5.2501 11.8599,-7.0807 26.929,-12.5247 17.129,-6.1882 20.3094,-7.8066 27.9952,-14.2461 5.5811,-4.6762 8.0421,-6.2363 16.1602,-10.2445 8.8893,-4.3889 35.64,-15.7713 46.6851,-19.8644 9.9476,-3.6864 25.916,-6.4113 28.6395,-4.8872 0.9019,0.5048 0.8508,0.844 -0.5525,3.66 -2.6641,5.3461 -6.1774,7.4757 -19.7946,11.9982 -9.775,3.2464 -24.338,9.5275 -32.8584,14.172 -6.0631,3.305 -5.9072,3.7798 1.2645,3.8511 5.9291,0.059 9.1265,-1.0536 22.221,-7.7323 6.3188,-3.2227 13.1869,-6.439 15.2625,-7.1472 4.9551,-1.6907 10.4191,-2.1885 14.0535,-1.2802 3.025,0.7561 8.5739,3.9453 8.5739,4.928 0,1.6139 -6.8764,7.5426 -13.6132,11.737 -6.8222,4.2476 -11.5687,8.3374 -13.9266,11.9994 -0.8753,1.3594 -0.9859,1.374 -5.0462,0.6669 -4.8758,-0.8491 -12.8024,-0.4393 -17.9895,0.93 -1.9752,0.5214 -7.6312,2.4479 -12.5691,4.281 -11.1496,4.1393 -17.8195,5.648 -35.3131,7.9875 -7.5713,1.0126 -15.9902,2.3666 -18.7087,3.0089 -5.9441,1.4044 -14.7473,4.7904 -14.0858,5.4178 2.4472,2.3212 16.1232,3.0863 25.6834,1.4369 7.1267,-1.2296 26.5582,-6.2999 34.3441,-8.9616 13.1804,-4.5057 20.2591,-5.4634 24.8389,-3.3603 4.1704,1.915 6.2071,5.4849 6.2582,10.9691 l 0.026,2.8177 -4.0401,1.1884 c -25.8605,7.6073 -65.7112,14.3494 -109.9087,18.5949 -6.8742,0.6603 -12.8484,1.4909 -13.2761,1.8458 -0.8836,0.7333 -2.0569,5.6318 -2.0569,8.5873 0,4.2413 -0.926,5.4563 -5.8708,7.7033 -15.5274,7.0558 -29.948,9.2256 -44.1062,6.6363 -6.1449,-1.1237 -4.9408,-0.1732 -16.4595,-12.9921 -7.4728,-8.3162 -15.8433,-16.3614 -36.2109,-34.8036 -26.0346,-23.5733 -33.9221,-31.9053 -47.8789,-50.577 -9.3701,-12.5356 -15.0918,-18.9604 -26.1325,-29.3436 -25.979,-24.4321 -38.5421,-38.1956 -45.1001,-49.4093 -1.5914,-2.7211 -2.8572,-4.1483 -4.1635,-4.694 -1.0322,-0.4314 -3.7488,-2.7273 -6.0366,-5.102 -4.4172,-4.5848 -8.2018,-7.2154 -10.3806,-7.2154 -1.7227,0 -3.9018,4.6448 -4.8994,10.4436 -1.6796,9.7624 1.6873,28.6541 10.8709,60.9964 4.7986,16.8996 5.6846,21.6667 7.1354,38.3897 1.6916,19.4991 2.1037,21.4214 10.2003,47.5828 7.3998,23.9099 10.1464,36.9321 10.1464,48.1058 0,3.7053 -0.2683,4.8475 -1.8057,7.6859 -2.8051,5.1791 -4.0521,9.4465 -6.301,21.5642 -2.3132,12.4632 -3.6434,16.6416 -6.4857,20.373 -3.0114,3.9532 -6.2509,5.4301 -12.3308,5.6213 -2.8039,0.088 -5.7731,-0.06 -6.5982,-0.3302 z m 202.5563,-93.8068 c 2.3188,-0.8898 -0.3701,-7.5837 -5.524,-13.7518 -3.6664,-4.3879 -16.5053,-15.834 -36.9225,-32.9171 -33.0931,-27.6892 -42.7121,-37.1638 -56.7668,-55.9145 -12.2212,-16.3045 -16.1732,-20.0819 -43.4864,-41.5647 -4.1149,-3.2365 -10.4882,-8.9295 -14.1631,-12.6511 -6.0892,-6.1669 -6.9455,-7.3182 -9.6615,-12.9905 -2.9055,-6.0684 -5.1627,-8.8066 -7.2599,-8.8066 -0.5481,0 -1.2748,-0.2781 -1.6147,-0.6181 -0.978,-0.978 -2.3309,-0.1089 -3.4353,2.207 l -1.018,2.1348 2.5396,3.3636 c 7.8634,10.415 17.5613,21.1057 43.5836,48.0452 24.8226,25.6975 28.392,29.0832 42.5026,40.3146 15.8031,12.5786 26.9164,23.3906 44.9284,43.7104 13.2078,14.9002 34.8873,36.7746 38.2668,38.6109 2.0588,1.1187 6.1692,1.5424 8.0312,0.8279 z m -521.268,-100.5233 c -2.6335,-0.4827 -5.0844,-0.9851 -5.4463,-1.1163 -1.0707,-0.3881 -6.9795,-10.7086 -12.0732,-21.0873 -4.8462,-9.8745 -12.3098,-28.1396 -16.9386,-41.4527 l -2.5831,-7.4295 2.297,-1.9856 c 5.9291,-5.1254 12.5754,-6.1552 19.1825,-2.9723 2.9776,1.4344 5.9943,4.1512 17.6566,15.9011 10.5531,10.6326 14.8874,14.5956 17.3572,15.871 2.8951,1.495 3.7488,2.4075 7.0823,7.5703 4.6321,7.1739 6.098,10.8878 6.527,16.5358 l 0.3296,4.3393 h -2.6904 c -3.4982,0 -6.115,-0.9129 -9.5311,-3.325 -4.1372,-2.9214 -6.2084,-3.8543 -8.781,-3.9551 -2.9319,-0.1148 -3.2922,0.1234 -5.7848,3.8247 -2.4604,3.6535 -2.3536,5.0979 0.7548,10.2009 1.5083,2.4762 2.1199,4.1983 2.1608,6.0848 0.032,1.4472 -0.1115,2.7999 -0.3176,3.0062 -0.8254,0.826 -4.6636,0.8217 -9.2017,-0.01 z"
     id="path12"
     inkscape:connector-curvature="0" />
</svg>
