<?xml version="1.0" encoding="UTF-8"?>
<svg width="1814px" height="589px" viewBox="0 0 1814 589" version="1.1" xmlns="http://www.w3.org/2000/svg" xmlns:xlink="http://www.w3.org/1999/xlink">
    <!-- Generator: Sketch 49.1 (51147) - http://www.bohemiancoding.com/sketch -->
    <title>Artboard 2</title>
    <desc>Created with Sketch.</desc>
    <defs></defs>
    <g id="Artboard-2" stroke="none" stroke-width="1" fill="none" fill-rule="evenodd">
        <g id="Auth0_Shield-Lockup_Black_RGB" transform="translate(512.000000, 209.000000)" fill="#000000" fill-rule="nonzero">
            <g id="Group">
                <path d="M0.00676825953,262.08098 C0.00676825953,206.200876 46.1866031,185.089557 104.319184,185.089557 L160.807078,185.089557 C164.928948,185.089557 166.993268,183.017156 166.993268,178.879147 L166.993268,170.188649 C166.993268,139.972353 144.319598,125.485925 110.918237,125.485925 C84.9416572,125.485925 67.2155854,134.183218 57.7264856,152.807654 C54.4303432,159.432545 51.5402964,161.912632 44.5351477,161.912632 L20.210023,161.912632 C12.3791467,161.912632 8.6633722,157.774623 8.6633722,151.564213 C8.6633722,148.662851 9.48909987,144.524842 12.7852423,137.492266 C28.4537631,104.795882 58.9650771,83.6845638 115.865835,83.6845638 C179.358878,83.6845638 216.882109,111.835253 216.882109,173.504492 L216.882109,275.745241 C216.882109,286.09366 220.591115,288.580542 229.247719,288.580542 L229.660583,288.580542 C237.904323,288.580542 242.026193,292.718551 242.026193,300.994568 L242.026193,321.691406 C242.026193,329.967424 237.904323,334.105432 229.660583,334.105432 L215.230653,334.105432 C191.724488,334.105432 179.771742,327.895022 172.346961,311.750673 C171.108369,308.849311 170.282642,308.027145 168.637955,308.027145 C166.993268,308.027145 165.747908,308.856105 162.451765,311.750673 C143.899966,328.309502 120.806664,337 89.8824866,337 C42.8769242,337 0,315.059721 0,262.08098 L0.00676825953,262.08098 Z M166.993268,233.93029 L166.993268,229.792282 C166.993268,225.654273 164.928948,223.581871 160.807078,223.581871 L98.9587227,223.581871 C70.098864,223.581871 49.8956093,234.344771 49.8956093,260.008578 C49.8956093,285.672385 70.5117278,296.435285 95.2497164,296.435285 C133.598675,296.435285 166.993268,272.422604 166.993268,233.93029 Z" id="Shape"></path>
                <path d="M263.528084,225.16151 L263.528084,98.3420899 C263.528084,90.0827565 267.66457,85.9530898 275.937543,85.9530898 L301.177581,85.9530898 C309.450553,85.9530898 313.587039,90.0827565 313.587039,98.3420899 L313.587039,220.618199 C313.587039,260.273849 328.068137,289.601942 369.446585,289.601942 C413.310999,289.601942 433.99343,254.903248 433.99343,214.833953 L433.99343,98.3353089 C433.99343,90.0759754 438.129916,85.9463087 446.402889,85.9463087 L471.642927,85.9463087 C479.915899,85.9463087 484.052385,90.0759754 484.052385,98.3353089 L484.052385,320.584614 C484.052385,328.843947 479.915899,332.973614 471.642927,332.973614 L448.888856,332.973614 C441.437747,332.973614 437.301261,329.257592 436.058277,321.818767 L433.986638,310.66392 C433.57231,308.182052 432.329326,306.947898 430.264479,306.947898 C428.61396,306.947898 427.370977,307.775188 425.30613,309.843412 C408.339065,325.127925 387.649841,335.869128 357.030333,335.869128 C292.06916,335.869128 263.5145,289.188297 263.5145,225.16151 L263.528084,225.16151 Z" id="Shape"></path>
                <path d="M529.297725,266.245552 L529.297725,15.7876286 C529.297725,7.52428782 533.438228,3.39261745 541.719235,3.39261745 L566.983783,3.39261745 C575.264789,3.39261745 579.405292,7.52428782 579.405292,15.7876286 L579.405292,80.2593257 C579.405292,84.390996 581.478943,86.4602234 585.619447,86.4602234 L658.931509,86.4602234 C667.212515,86.4602234 671.353019,90.5918938 671.353019,98.8552345 L671.353019,119.520371 C671.353019,127.783711 667.212515,131.922166 658.931509,131.922166 L585.619447,131.922166 C581.478943,131.922166 579.405292,133.991394 579.405292,138.123064 L579.405292,261.700036 C579.405292,279.882099 587.686299,288.152224 606.321963,288.152224 L663.894674,288.152224 C672.17568,288.152224 676.316183,292.283894 676.316183,300.547235 L676.316183,321.212371 C676.316183,329.475712 672.17568,333.607383 663.894674,333.607383 L603.84038,333.607383 C552.067093,333.607383 529.290926,312.942246 529.290926,266.238767 L529.297725,266.245552 Z" id="Shape"></path>
                <path d="M710.245089,321.205842 L710.245089,15.7873739 C710.245089,7.52420294 714.38108,3.39261745 722.653061,3.39261745 L747.890076,3.39261745 C756.162058,3.39261745 760.298048,7.52420294 760.298048,15.7873739 L760.298048,112.082488 C760.298048,114.56551 761.94837,116.214073 764.019761,116.214073 C765.262596,116.214073 766.498639,115.800236 770.227143,112.496325 C788.428219,95.9631987 808.286408,83.5684422 841.802196,83.5684422 C906.34131,83.5684422 935.306829,129.029451 935.306829,195.982845 L935.306829,321.212626 C935.306829,329.475797 931.170838,333.607383 922.898856,333.607383 L897.661842,333.607383 C889.38986,333.607383 885.253869,329.475797 885.253869,321.212626 L885.253869,198.465867 C885.253869,160.026518 870.360228,129.857125 829.815293,129.857125 C786.370411,129.857125 760.311631,164.985778 760.311631,214.585156 L760.311631,321.212626 C760.311631,329.475797 756.17564,333.607383 747.903659,333.607383 L722.666644,333.607383 C714.394663,333.607383 710.258672,329.475797 710.258672,321.212626 L710.245089,321.205842 Z" id="Shape"></path>
                <path d="M966.973807,168.707533 C966.973807,56.3741999 1010.33878,0 1087.99029,0 C1165.6418,0 1209,56.3741999 1209,168.707533 C1209,281.040867 1165.63502,337 1087.99029,337 C1010.34556,337 966.973807,280.6258 966.973807,168.707533 Z M1027.68884,206.430957 L1137.1454,84.5647021 C1138.79973,82.4893694 1139.62011,81.2509742 1139.62011,78.3455085 C1139.62011,76.2701759 1139.20653,73.7865811 1136.31824,70.0509823 C1125.16512,56.3741999 1109.47616,46.426212 1087.99707,46.426212 C1042.56419,46.426212 1016.95608,87.8784299 1016.95608,169.1226 C1016.95608,180.72405 1017.36966,191.093908 1019.02398,205.185757 C1019.43756,207.676156 1020.67153,209.329618 1022.73943,209.329618 C1023.98017,209.329618 1025.6345,208.914552 1027.69562,206.430957 L1027.68884,206.430957 Z M1159.03129,167.8774 C1159.03129,156.269146 1158.61771,145.906092 1156.96339,131.814243 C1156.5498,129.323844 1155.31584,127.670382 1153.24794,127.670382 C1152.00719,127.670382 1150.35287,128.085448 1148.29175,130.575848 L1038.83519,252.442102 C1037.18764,254.517435 1036.36048,255.75583 1036.36048,258.661296 C1036.36048,260.736629 1036.77406,263.220223 1039.66235,266.949018 C1050.81547,280.6258 1066.50443,290.573788 1087.99029,290.573788 C1133.42317,290.573788 1159.02451,249.12157 1159.02451,167.8774 L1159.03129,167.8774 Z" id="Shape"></path>
            </g>
        </g>
        <g id="Group" transform="translate(60.000000, 96.000000)" fill="#0041D9" fill-rule="nonzero">
            <path d="M24.2178922,192.430809 C97.971046,180.299608 155.772964,122.539817 167.920127,48.8479112 L173.829081,13.0124021 C174.963835,6.08028721 169.266545,-0.0352480418 162.252235,0.499347258 C106.096593,4.84073107 53.1747068,23.4164491 23.9474326,35.3890339 C9.75418384,41.2108355 0.470364501,54.9928198 0.470364501,70.3315927 L0.470364501,183.60705 C0.470364501,190.26893 6.43223455,195.338773 13.0173376,194.257833 C13.0173376,194.257833 24.2178922,192.424935 24.2178922,192.424935 L24.2178922,192.430809 Z" id="Shape"></path>
            <path d="M203.491442,48.8537859 C215.632726,122.545692 273.440523,180.299608 347.193677,192.436684 L358.394231,194.269582 C364.979334,195.350522 370.941204,190.280679 370.941204,183.618799 L370.941204,70.343342 C370.941204,54.9986945 361.657385,41.2225849 347.464136,35.4007833 C318.236862,23.4046997 265.291458,4.85248042 209.159334,0.511096606 C202.145024,-0.0293733681 196.424216,6.06853786 197.582488,13.0241514 L203.491442,48.8596606 L203.491442,48.8537859 Z" id="Shape"></path>
            <path d="M347.187797,227.943211 C273.434643,240.074413 215.632726,297.834204 203.485563,371.52611 L196.118479,441.469974 C195.44233,447.779373 202.46252,452.226501 207.748241,448.695822 C207.801157,448.666449 207.830555,448.64295 207.883471,448.613577 C254.13794,417.442559 359.652456,335.849217 370.094548,233.929504 C370.60607,228.912533 366.155246,224.817885 361.187021,225.622715 L347.205436,227.913838 L347.176038,227.943211 L347.187797,227.943211 Z" id="Shape"></path>
            <path d="M167.920127,371.52611 C155.778843,297.834204 97.971046,240.080287 24.2178922,227.943211 L9.18386688,225.464099 C4.75656101,224.73564 0.793740095,228.401436 1.2229477,232.877937 C11.1241204,335.367493 118.096767,417.471932 164.756926,448.695822 C169.589921,451.903394 175.980998,448.049608 175.363645,442.280679 L167.914247,371.52611 L167.920127,371.52611 Z" id="Shape"></path>
        </g>
    </g>
</svg>