<?xml version="1.0" encoding="UTF-8"?>
<svg id="Logos" xmlns="http://www.w3.org/2000/svg" viewBox="0 0 1134.09 1133.93">
  <defs>
    <style>
      .cls-1 {
        fill-rule: evenodd;
      }
    </style>
  </defs>
  <g id="Logomark_Black">
    <path class="cls-1" d="M604.82,190.75l-15.68,193.53.03.02c-7.42-.91-14.94-1.42-22.59-1.42-9.54,0-18.92.72-28.06,2.12l-8.91-93.85c-.28-2.93,2.05-5.49,5.01-5.45h16.03l-7.72-94.95c-.26-2.91,2.05-5.42,4.98-5.42h51.96c2.91,0,5.21,2.51,4.98,5.42ZM473.7,200.36c-.77-2.82-3.79-4.38-6.54-3.37l-48.82,17.78c-2.75,1-4.05,4.14-2.84,6.8l39.72,86.57-15.08,5.45c-2.77,1-4.1,4.19-2.82,6.87l40.46,85.15c14.68-8.08,30.58-14.17,47.35-18.01l-51.45-187.22ZM353.8,254.26l112.36,158.32.02.02c-14.24,9.26-27.13,20.43-38.3,33.16l-67.2-66.21c-2.12-2.07-1.95-5.52.3-7.4l12.29-10.29-66.92-67.77c-2.05-2.07-1.88-5.47.35-7.35l39.79-33.42c2.26-1.88,5.61-1.44,7.31.93ZM259.54,345.91c-2.4-1.65-5.72-.91-7.19,1.61l-25.97,45.01c-1.47,2.54-.44,5.77,2.19,7.03l86.07,40.8-8.05,13.87c-1.49,2.56-.44,5.84,2.26,7.07l85.74,39.21c6.21-15.94,14.52-30.81,24.66-44.24l-159.71-110.35ZM196.14,468.25c.51-2.89,3.35-4.72,6.19-3.98l187.8,49.06c-4.86,15.87-7.59,32.65-7.96,50.03l-94.03-7.54c-2.96-.23-5.05-2.96-4.54-5.87l2.82-15.78-94.82-8.89c-2.91-.28-4.98-2.98-4.47-5.87l9-51.18ZM189.04,595.08c-2.91.28-4.98,2.98-4.47,5.86l9.03,51.18c.51,2.88,3.37,4.72,6.19,3.98l92.14-24.08,2.75,15.78c.51,2.91,3.42,4.75,6.26,3.96l90.89-25.09c-5.35-15.75-8.66-32.42-9.54-49.76l-193.24,18.18ZM219.1,729.57c-1.47-2.54-.47-5.77,2.19-7.03l175.35-83.15c6.68,15.73,15.5,30.33,26.06,43.45l-76.85,54.66c-2.4,1.72-5.77.98-7.24-1.58l-7.98-13.89-78.34,54.15c-2.42,1.68-5.72.93-7.19-1.61l-25.99-45.01ZM431.57,693.1l-136.4,138.19c-2.05,2.07-1.88,5.47.35,7.36l39.81,33.39c2.23,1.88,5.61,1.44,7.31-.93l55.1-77.68,12.26,10.33c2.26,1.91,5.68,1.44,7.35-.98l53.49-77.61c-14.52-8.84-27.71-19.67-39.25-32.02l-.02-.04ZM404.62,914.99c-2.75-1-4.05-4.14-2.84-6.8h.02l80.9-176.49c14.89,7.61,30.95,13.29,47.84,16.64l-23.73,91.25c-.74,2.86-3.79,4.47-6.56,3.44l-15.05-5.52-25.22,91.85c-.77,2.82-3.79,4.38-6.54,3.37l-48.82-17.76ZM543.95,750.47h0s-.02,0-.02,0h.02ZM543.95,750.47l-15.68,193.55c-.23,2.91,2.07,5.42,4.98,5.42h51.96c2.93,0,5.24-2.51,4.98-5.42l-7.72-94.95h16.03c2.95.05,5.28-2.51,5-5.44l-8.91-93.85c-9.14,1.39-18.52,2.12-28.06,2.12-7.65,0-15.16-.51-22.57-1.42ZM731.31,226.55c1.21-2.65-.09-5.79-2.84-6.8l-48.82-17.76c-2.74-1-5.77.56-6.54,3.37l-25.22,91.85-15.05-5.52c-2.77-1.02-5.82.58-6.56,3.44l-23.73,91.25c16.89,3.35,32.95,9.03,47.84,16.64l80.93-176.49ZM837.92,303.46l-136.4,138.19-.03-.05c-11.54-12.36-24.73-23.18-39.25-32.02l53.49-77.61c1.68-2.42,5.09-2.89,7.35-.98l12.26,10.33,55.1-77.68c1.7-2.37,5.07-2.82,7.31-.93l39.81,33.39c2.23,1.89,2.4,5.28.35,7.35ZM911.8,412.21c2.66-1.26,3.65-4.49,2.19-7.03l-25.99-45.01c-1.47-2.54-4.77-3.28-7.19-1.61l-78.34,54.15-7.98-13.89c-1.46-2.56-4.84-3.3-7.24-1.58l-76.85,54.67c10.57,13.13,19.38,27.72,26.06,43.45l175.35-83.15ZM939.46,482.65l9.03,51.18.02.02c.51,2.89-1.56,5.59-4.47,5.87l-193.26,18.15c-.88-17.34-4.19-34-9.54-49.76l90.88-25.09c2.84-.79,5.75,1.05,6.26,3.96l2.74,15.78,92.14-24.09c2.82-.74,5.68,1.09,6.19,3.98ZM930.74,670.48c2.84.74,5.68-1.09,6.19-3.98l9.01-51.17c.51-2.89-1.56-5.59-4.47-5.87l-94.82-8.89,2.82-15.78c.51-2.91-1.58-5.63-4.54-5.87l-94.02-7.54c-.37,17.38-3.12,34.17-7.96,50.03l187.8,49.04v.02ZM880.71,787.23c-1.46,2.51-4.79,3.26-7.19,1.61l.02-.02-159.73-110.33c10.14-13.43,18.45-28.3,24.66-44.24l85.74,39.22c2.7,1.23,3.75,4.51,2.26,7.07l-8.05,13.87,86.07,40.79c2.63,1.26,3.65,4.49,2.19,7.03l-25.97,45.01ZM666.9,722.16l112.36,158.34c1.7,2.38,5.05,2.82,7.31.93l39.79-33.42c2.23-1.88,2.39-5.28.35-7.36l-66.92-67.77,12.29-10.29c2.26-1.88,2.42-5.33.3-7.4l-67.2-66.21c-11.17,12.73-24.06,23.9-38.3,33.16h.02ZM665.92,937.75c-2.74,1-5.77-.56-6.54-3.37l-51.44-187.22c16.77-3.84,32.67-9.94,47.35-18.01l40.46,85.15c1.28,2.68-.04,5.87-2.82,6.87l-15.08,5.44,39.72,86.57c1.21,2.65-.09,5.79-2.84,6.79l-48.82,17.78Z"/>
  </g>
</svg>